<svg width="57" height="30" viewBox="0 0 57 30" fill="none" xmlns="http://www.w3.org/2000/svg">
<path d="M5.066 9.35026V10.6423H4.029V9.35026L2.04 7.24226V14.7903H1.02V6.01826C1.02 5.79159 1.12767 5.63292 1.343 5.54226C1.411 5.50826 1.47333 5.49126 1.53 5.49126C1.65467 5.49126 1.77367 5.54793 1.887 5.66126L4.522 8.39826L7.225 5.62726C7.31567 5.53659 7.43467 5.49126 7.582 5.49126C7.59333 5.49126 7.61317 5.48843 7.6415 5.48276C7.66983 5.47709 7.6925 5.47426 7.7095 5.47426C7.71517 5.47426 7.735 5.47992 7.769 5.49126C7.98433 5.58192 8.092 5.74626 8.092 5.98426V14.7903H7.072V7.20826L5.066 9.35026ZM16.8307 5.47426H23.9027V6.51126H17.8337V9.58826H21.8797V10.6253H17.8337V13.7873H23.9027V14.8073H16.8307V5.47426ZM32.6413 14.7903V5.49126H33.6443L38.7103 10.6763V5.49126H39.7133V14.7903H38.7103V12.2403L33.6443 7.00426V14.7903H32.6413ZM48.452 5.49126H49.438V13.0563L50.169 13.7703H53.807L54.504 13.0393V5.49126H55.524V13.2433C55.524 13.3793 55.4787 13.4926 55.388 13.5833L54.402 14.6203C54.2887 14.7336 54.164 14.7903 54.028 14.7903H49.948C49.812 14.7903 49.693 14.7393 49.591 14.6373L48.588 13.6343C48.4973 13.5436 48.452 13.4246 48.452 13.2773V5.49126Z" fill="white"/>
<path d="M0 25.8801L13.5 25.8801" stroke="#0075FF"/>
<path d="M4 21.8801L4 29.8801" stroke="#0075FF"/>
</svg>