<svg width="1917" height="1700" viewBox="0 0 1917 1700" fill="none" xmlns="http://www.w3.org/2000/svg">
<path d="M577.54 5.28152C570.254 12.5673 570.601 16.0367 581.01 46.9146C590.377 74.6701 590.03 86.4661 579.969 97.5683C576.846 101.038 576.152 103.813 578.234 103.813C583.438 103.813 600.091 83.3436 605.989 69.119C612.581 52.8127 610.153 16.3837 601.826 7.01624C593.846 -1.65733 584.826 -2.35121 577.54 5.28152Z" fill="white"/>
<path d="M422.457 59.4044C422.457 60.0983 421.763 65.6493 421.417 71.5474C420.029 85.0781 412.049 98.2618 400.947 105.201C396.784 107.976 373.885 114.915 349.946 120.813C316.293 129.14 302.762 134.344 288.191 144.058C266.333 159.324 226.435 199.569 209.088 223.508L196.945 240.855L217.414 242.937C236.496 244.672 266.68 257.856 266.68 264.101C266.68 265.488 270.496 270.345 275.354 274.509C280.211 278.672 284.027 285.264 284.027 289.427C284.027 293.591 287.844 301.917 292.701 308.509C306.579 327.244 301.721 333.142 285.415 317.183C272.925 304.693 268.762 309.203 271.537 332.101C274.66 359.163 284.027 378.245 301.374 391.775C317.334 404.265 315.599 409.469 298.599 400.796C283.68 393.163 267.374 373.04 262.864 356.387C260.782 348.061 259.741 331.407 260.782 318.917C262.17 299.836 261.823 298.101 259.047 308.509C253.496 327.244 258.007 412.245 266.68 455.96C276.741 506.96 280.211 511.818 280.558 475.042C280.905 458.735 282.293 442.429 283.68 438.96C293.048 414.327 293.395 506.613 284.027 549.634C275.007 590.574 262.864 614.86 239.272 638.452C213.598 663.778 185.842 677.309 154.271 679.044C135.189 680.432 127.556 679.044 118.189 674.187C106.74 667.942 106.046 667.942 101.882 674.187C96.3313 681.472 98.4129 688.758 108.127 699.513L115.066 707.146L106.74 710.269C102.229 712.003 85.923 715.126 71.0045 717.555C25.9019 724.146 6.47315 739.412 0.922066 772.371C-1.15959 785.902 -0.465703 787.984 10.9834 799.433C17.5753 806.025 24.8611 811.576 26.9428 811.576C29.0244 811.576 33.1877 805.331 36.3102 797.698C43.9429 778.616 60.2492 765.78 90.0863 754.33C155.658 729.698 214.986 700.901 235.455 683.554C247.251 673.84 246.557 673.84 219.843 687.024C204.577 694.656 171.965 707.146 146.985 714.779C68.9228 739.065 47.7593 750.167 30.0652 776.882L24.1672 785.555V777.229C23.8203 763.004 40.1266 743.228 59.9023 733.861C69.6167 729.351 98.7599 719.983 124.434 713.044C189.312 695.697 221.578 679.044 249.68 649.554C291.66 604.798 307.272 562.124 303.456 499.328C302.415 479.205 299.293 453.184 296.517 441.041C294.089 429.245 292.354 419.531 293.395 419.531C294.089 419.531 300.68 422.653 307.619 426.123C316.293 430.633 322.538 437.225 326.701 446.592C330.171 454.225 335.028 461.511 337.803 462.552C344.395 464.98 344.395 458.735 337.803 447.286C328.089 430.286 334.334 408.429 346.477 416.061C353.416 420.572 363.824 420.572 363.824 416.061C363.824 413.98 361.395 412.592 358.62 412.592C352.028 412.592 339.538 392.816 339.538 382.061C339.538 373.04 341.967 372.694 351.334 379.632C361.048 386.918 376.661 386.224 381.171 378.245C383.947 372.693 382.906 370.265 373.885 363.673C350.987 347.367 349.252 318.917 370.763 318.917C377.702 318.917 382.906 316.142 386.722 310.244C396.09 295.672 391.926 289.774 371.11 286.999C356.538 285.264 347.518 281.101 328.783 267.917C285.762 237.733 278.823 234.957 248.292 236.345C231.639 237.039 221.925 235.998 222.618 233.916C224.353 228.365 257.313 209.631 277.435 203.039C301.721 194.712 343.354 192.283 367.987 197.141C398.865 203.733 434.947 222.814 455.417 243.631C481.785 270.692 488.723 300.876 474.846 326.897C471.029 333.836 467.907 340.428 467.907 341.122C467.907 341.816 472.417 344.244 477.968 346.673C486.295 350.142 490.111 349.795 500.866 344.591C508.152 341.122 514.744 340.081 516.479 341.816C522.377 347.714 550.826 408.082 558.112 430.286C563.663 446.592 565.398 457.348 564.01 470.531C561.928 491.348 568.52 497.593 580.316 485.797C586.561 479.205 586.908 477.47 582.398 459.429C579.969 449.021 578.928 439.307 579.969 438.266C581.357 436.878 591.765 444.858 603.908 455.96C630.623 480.94 647.276 488.572 673.644 488.919C695.848 488.919 721.869 478.164 737.828 462.205C745.114 454.919 747.543 454.225 754.828 457.347C766.277 462.552 774.257 462.205 788.829 455.266C795.421 452.143 802.012 450.409 803.053 451.796C806.176 454.919 782.584 507.307 768.012 529.512C745.808 563.165 730.889 564.9 712.501 535.757C701.399 517.716 694.46 511.471 684.052 508.695C674.685 506.613 674.338 508.695 681.276 518.062C684.052 521.879 686.481 529.859 686.481 535.757C686.481 561.083 700.705 579.124 720.828 579.124C732.277 579.124 732.624 585.716 721.522 596.125C709.379 607.574 691.338 611.043 667.746 606.533C638.949 601.329 625.419 586.757 610.153 545.471C599.398 515.634 594.194 512.164 587.255 529.165C579.622 547.553 579.969 578.43 588.643 596.818C602.521 627.696 628.888 645.39 664.276 647.819C692.032 649.554 711.114 641.227 738.522 615.206C749.971 604.104 760.379 596.472 761.767 597.512C762.808 598.9 762.114 608.615 759.686 619.37C755.869 636.717 755.869 639.492 761.42 645.39C768.359 653.37 774.257 653.717 779.808 647.125C782.584 643.656 782.931 641.574 780.155 639.839C774.257 636.023 776.339 614.513 785.706 586.757C795.768 556.573 824.217 499.328 829.421 499.328C831.156 499.328 837.401 501.756 843.299 504.879C851.972 509.389 855.442 509.389 863.768 506.266C875.564 501.409 875.911 498.981 867.932 486.491C859.605 474.001 859.952 442.429 868.279 426.817C877.299 409.816 901.585 387.612 924.83 375.122C979.994 345.979 1047.3 347.367 1100.38 379.285C1110.1 385.183 1118.42 391.428 1119.12 393.51C1119.81 395.592 1108.36 396.98 1089.28 396.98H1058.4L1033.77 414.327C994.219 441.735 989.015 444.511 969.933 446.939C949.81 449.368 945.647 455.613 955.014 469.837C959.524 476.776 963.688 478.511 974.443 478.511C986.933 478.511 988.321 479.205 988.321 487.185C988.321 499.675 979.994 514.593 967.157 524.654C957.096 532.287 956.749 533.328 962.3 538.532C969.239 545.818 978.606 545.818 991.79 539.226L1002.2 533.675V544.777C1002.2 552.757 999.076 559.002 989.708 567.328C975.831 580.512 982.076 583.982 998.729 572.186C1003.93 568.369 1009.14 566.288 1010.52 567.675C1014.69 571.839 1012.26 587.798 1005.67 603.064C1001.85 611.39 998.729 619.37 998.729 621.104C998.729 628.043 1006.01 623.533 1012.61 613.125C1019.89 600.982 1026.14 574.267 1035.16 517.369C1038.28 497.94 1043.14 475.042 1046.26 466.368C1052.85 446.592 1077.83 418.837 1096.91 409.469C1120.85 397.673 1133.69 399.755 1171.51 420.919C1190.24 430.98 1215.22 444.858 1227.71 451.796C1257.55 468.103 1264.49 476.082 1267.26 498.287C1267.26 537.42 1276.91 514.142 1271.89 525.853C1258.01 514.404 1310.28 531.025 1287.03 524.086C1256.85 515.065 1261.11 523.658 1298.23 542.046C1320.44 552.801 1257.3 507.175 1269.79 518.624L1267.08 496.875C1267.08 496.875 1266.98 512.754 1266.45 522.581C1265.63 537.562 1267.26 534.369 1264.83 560.39C1262.41 586.41 1251.3 620.064 1239.51 638.105C1234.65 645.39 1222.16 657.533 1211.75 664.472L1192.67 677.656L1167.69 673.146C1153.81 670.717 1136.81 667.942 1129.53 666.901L1116.34 664.819L1121.55 678.003C1124.67 685.289 1126.75 691.534 1126.4 691.881C1125.71 692.228 1115.65 691.187 1103.51 689.105C1086.85 686.33 1080.95 686.33 1077.48 689.799C1074.02 693.269 1075.4 695.697 1083.38 702.289C1091.36 708.534 1092.75 712.003 1091.02 718.942C1087.2 734.208 1062.57 761.616 1045.57 769.943C1024.4 780.351 1006.01 777.923 961.606 760.229C942.871 752.596 927.259 746.698 926.565 747.392C925.871 748.085 926.912 754.33 928.994 761.616C931.075 768.902 932.116 775.147 931.769 775.841C931.075 776.188 922.402 773.759 912.687 769.943C877.646 756.412 871.054 763.351 896.381 786.943C905.054 794.923 911.993 802.555 911.993 804.29C911.993 806.025 907.483 808.107 901.585 809.147C878.34 814.005 899.85 825.454 931.769 825.454C955.708 825.454 985.198 815.392 1025.79 793.882C1059.79 775.494 1067.08 775.841 1043.14 795.27C1018.85 814.352 997.341 826.495 920.667 864.311C853.36 897.618 821.788 918.087 821.788 928.496C821.788 930.577 829.074 933.7 838.095 935.088C846.768 936.822 854.748 939.598 855.442 941.68C855.789 943.414 848.503 950.7 838.788 957.292C821.788 968.741 809.298 985.394 813.809 989.904C815.196 990.945 819.707 991.986 824.564 991.986C835.319 991.986 832.89 998.578 819.707 1005.86C804.094 1014.88 799.237 1026.33 803.4 1044.37L807.217 1059.64L807.564 1045.76C807.911 1031.19 812.768 1020.09 816.931 1023.9C817.972 1025.29 817.625 1031.19 815.543 1036.74C813.115 1044.03 813.115 1051.31 815.543 1060.33C817.625 1067.62 820.4 1081.15 821.788 1090.86C824.217 1108.21 824.564 1108.21 824.911 1094.33C825.605 1076.99 832.543 1049.58 840.87 1033.62C861.687 993.027 904.014 943.414 917.891 943.414C933.157 943.414 930.728 955.21 914.075 962.149C906.442 965.272 921.014 971.17 936.973 971.17C959.871 971.17 987.28 960.067 1018.16 937.863C1046.26 917.74 1051.12 915.659 1048.34 925.373C1046.26 934.394 1016.77 959.374 953.626 1006.56C924.136 1028.42 893.952 1052.35 886.667 1059.64C871.401 1074.56 865.156 1087.74 870.013 1093.99C875.911 1100.93 875.564 1128.68 869.319 1141.17C863.421 1152.27 863.768 1152.97 870.707 1160.6C879.034 1169.62 882.503 1190.09 879.381 1211.95C876.605 1229.29 855.442 1256.36 834.278 1269.19C820.054 1278.21 792.992 1287.93 795.768 1283.42C796.808 1281.34 799.931 1279.95 802.359 1279.95C805.135 1279.95 808.951 1277.52 811.38 1274.74C817.278 1267.81 814.849 1268.15 782.237 1278.21C754.828 1286.54 734.012 1296.6 751.706 1292.79C763.849 1290.01 780.155 1296.95 783.972 1306.66C785.706 1311.52 789.176 1314.64 791.604 1313.6C795.768 1312.21 796.461 1306.32 792.645 1297.3C790.91 1293.13 796.115 1290.01 815.543 1283.42C835.666 1276.83 844.686 1271.27 858.217 1257.4C867.932 1248.03 877.299 1236.93 879.728 1233.11C883.544 1226.52 883.891 1226.52 889.789 1232.42C896.034 1238.32 896.381 1237.62 900.197 1213.34C908.524 1160.25 914.769 1149.15 1052.85 946.19C1060.14 935.088 1067.42 926.067 1068.81 926.067C1070.2 926.067 1069.16 932.659 1066.38 940.292C1059.44 959.721 1060.14 976.721 1068.12 994.415C1076.44 1013.15 1082 1013.5 1082 995.803C1082 973.945 1089.28 948.965 1104.2 917.74C1119.12 887.209 1198.57 768.208 1206.2 765.086C1208.63 764.045 1214.53 764.739 1219.73 766.82L1228.75 770.29L1221.12 777.923C1212.1 787.984 1211.75 790.759 1220.43 790.759C1245.41 790.759 1276.98 768.208 1304.73 731.085C1321.73 708.187 1323.12 707.146 1324.16 715.82C1325.55 727.616 1318.26 740.106 1267.61 811.576C1223.89 872.985 1212.1 893.454 1209.32 911.842C1207.24 923.292 1207.59 923.292 1218.34 921.557C1224.59 920.169 1233.26 918.434 1237.77 917.047C1244.02 915.312 1245.41 915.659 1243.67 918.781C1241.94 921.21 1240.2 922.251 1239.16 921.21C1235.69 917.74 1224.24 926.414 1219.04 936.475C1214.18 945.843 1214.18 948.618 1219.04 965.966C1222.16 976.374 1226.32 984.7 1228.75 984.006C1233.26 982.966 1238.47 1010.03 1234.3 1014.19C1231.18 1017.66 1228.75 1012.8 1227.02 998.925C1225.98 990.251 1218 986.088 1208.63 989.904C1204.47 991.292 1205.16 993.721 1211.75 1000.31C1228.4 1016.62 1228.06 1052.7 1211.4 1076.64C1198.91 1094.33 1171.51 1115.15 1152.42 1121.74C1136.12 1127.29 1131.96 1123.82 1146.53 1117.23C1151.73 1115.15 1154.85 1112.38 1154.16 1111.33C1151.73 1109.25 1094.83 1126.95 1090.67 1131.46C1088.24 1133.89 1089.97 1134.58 1095.53 1133.19C1104.55 1131.11 1127.1 1139.44 1127.1 1144.99C1127.1 1146.72 1121.89 1145.68 1115.65 1142.56C1106.28 1138.05 1101.42 1137.7 1089.63 1140.82C1075.75 1144.64 1069.51 1151.58 1079.57 1151.58C1086.85 1151.58 1095.87 1163.03 1095.87 1172.05C1095.87 1176.21 1094.49 1178.64 1092.4 1177.6C1090.67 1176.56 1088.93 1172.4 1088.93 1168.93C1088.93 1165.11 1086.16 1160.6 1082.69 1158.87C1075.4 1155.05 1061.18 1157.48 1061.18 1162.68C1061.18 1164.76 1063.26 1165.46 1066.04 1164.42C1072.97 1161.64 1085.46 1171.7 1085.46 1179.68C1085.46 1186.97 1092.4 1188.36 1098.65 1182.11C1103.85 1176.91 1104.2 1159.91 1099.34 1156.78C1086.51 1148.8 1106.28 1142.21 1120.85 1149.5C1126.75 1152.62 1133 1155.05 1134.73 1155.05C1138.55 1155.05 1138.2 1141.87 1134.04 1139.44C1127.1 1134.93 1130.91 1131.8 1150.69 1126.25C1190.94 1114.8 1219.73 1088.44 1227.71 1054.44C1230.14 1044.72 1233.26 1037.09 1235 1037.09C1236.73 1037.09 1238.12 1038.48 1238.12 1040.56C1238.12 1042.29 1244.71 1044.03 1253.04 1044.03C1261.02 1044.03 1271.43 1046.46 1275.94 1049.93L1284.26 1055.48L1281.83 1043.33C1279.75 1032.23 1280.79 1029.8 1290.51 1021.82C1303 1011.07 1313.06 1009.68 1309.24 1018.7C1281.83 1081.5 1278.36 1117.58 1295.02 1154.01C1312.02 1191.13 1349.83 1218.54 1390.43 1223.4L1408.12 1225.48V1247.68C1408.12 1287.23 1427.2 1395.48 1432.75 1386.81C1434.49 1384.38 1435.88 1367.38 1435.88 1349.34C1436.22 1321.93 1436.92 1317.42 1440.39 1323.32C1447.67 1335.46 1445.24 1412.13 1436.22 1444.75C1426.16 1482.56 1417.49 1499.22 1394.94 1523.5C1373.77 1546.4 1352.96 1558.2 1321.04 1566.52C1298.49 1572.42 1288.43 1571.38 1270.04 1561.67C1259.98 1556.46 1258.24 1556.46 1255.47 1560.97C1250.26 1569.3 1251.3 1577.97 1258.94 1584.22C1262.75 1587.69 1265.87 1592.2 1265.87 1594.28C1265.87 1598.79 1261.36 1600.18 1219.73 1606.42C1178.1 1612.67 1158.67 1629.32 1155.55 1661.24C1154.16 1677.2 1154.85 1679.63 1164.57 1689.34C1170.47 1694.89 1177.4 1699.75 1180.18 1699.75C1182.96 1699.75 1187.81 1692.81 1191.28 1684.14C1198.91 1663.67 1211.4 1654.65 1255.47 1637.99C1306.12 1618.91 1347.75 1599.14 1376.9 1580.4C1390.77 1571.38 1401.53 1563.4 1400.84 1562.71C1400.14 1562.01 1384.53 1568.95 1366.49 1577.63C1348.45 1586.65 1310.63 1600.87 1282.53 1609.2C1223.89 1626.54 1200.3 1638.69 1187.47 1658.12C1176.71 1674.42 1173.94 1675.46 1177.4 1662.28C1184.34 1634.87 1207.59 1620.65 1279.75 1601.22C1339.43 1585.26 1371.69 1569.65 1397.02 1544.32C1454.61 1487.42 1469.53 1426.36 1449.41 1329.21C1447.33 1318.81 1446.28 1309.79 1447.33 1309.09C1448.02 1308.05 1453.57 1310.13 1459.82 1313.6C1469.53 1319.15 1471.26 1319.5 1479.59 1314.64C1484.8 1311.87 1490.35 1305.97 1491.73 1301.81C1494.16 1295.21 1492.43 1293.13 1478.9 1286.89C1470.57 1282.72 1463.63 1278.21 1463.63 1276.83C1463.63 1275.09 1471.61 1273.01 1480.98 1271.97C1509.08 1268.5 1536.14 1244.91 1541.69 1219.23L1544.12 1208.83L1537.18 1219.58C1530.25 1230.68 1514.63 1238.32 1499.71 1238.32C1488.96 1238.32 1489.31 1236.23 1501.1 1226.17C1509.43 1219.23 1510.47 1215.76 1510.47 1197.72C1510.47 1178.64 1510.82 1177.6 1519.14 1177.6C1526.78 1177.6 1527.82 1179.34 1528.86 1192.17C1529.9 1205.7 1530.59 1206.74 1536.84 1202.58C1541.35 1199.8 1544.82 1199.46 1548.29 1201.89C1570.84 1218.54 1570.14 1218.19 1580.55 1212.64C1589.92 1208.13 1598.94 1194.6 1598.94 1185.58C1598.94 1183.5 1596.51 1178.99 1593.39 1175.52C1588.88 1170.66 1586.1 1169.97 1578.82 1172.74C1554.88 1182.11 1529.9 1162.34 1522.27 1128.33C1519.84 1118.27 1518.8 1108.91 1519.84 1107.87C1520.88 1106.82 1527.82 1110.29 1535.1 1115.15C1551.06 1125.91 1572.92 1126.25 1572.92 1115.84C1572.92 1111.68 1564.59 1105.78 1546.9 1096.76C1516.37 1081.84 1506.65 1069.7 1503.53 1042.64C1499.02 1006.21 1516.02 998.231 1535.1 1027.72C1552.45 1054.09 1560.08 1060.68 1582.98 1067.97C1614.55 1078.37 1651.33 1082.54 1737.72 1085.31C1806.06 1087.74 1818.21 1088.78 1835.21 1095.72C1859.15 1104.74 1879.96 1119.31 1890.37 1134.58C1900.09 1148.11 1903.56 1176.56 1897.31 1194.95C1892.8 1208.83 1876.15 1229.64 1864.7 1235.54C1858.8 1238.66 1859.15 1237.62 1866.78 1229.29C1887.6 1207.09 1895.58 1173.78 1885.51 1150.54C1878.23 1133.19 1853.94 1114.11 1827.92 1106.13C1809.19 1100.23 1790.8 1098.5 1718.63 1095.72C1629.82 1092.6 1598.59 1088.44 1569.45 1075.6C1560.78 1071.78 1553.84 1070.05 1553.84 1071.78C1553.84 1073.52 1569.8 1088.44 1589.23 1105.44C1639.88 1149.15 1640.57 1149.85 1640.57 1161.99C1640.57 1174.82 1646.47 1175.52 1651.33 1163.38C1656.19 1150.54 1649.59 1132.84 1636.06 1122.09C1626.7 1114.8 1626 1112.72 1630.16 1109.95C1643.7 1101.27 1673.53 1113.42 1695.04 1136.66C1706.84 1149.15 1709.96 1151.23 1710.31 1146.03C1711.35 1133.19 1709.27 1129.03 1696.78 1115.84L1683.94 1102.31L1734.59 1103.7C1807.11 1105.44 1814.74 1112.03 1792.88 1153.66C1785.25 1167.54 1782.47 1176.91 1784.21 1181.07C1786.29 1187.31 1786.98 1186.97 1794.27 1178.64C1798.43 1173.78 1806.76 1167.19 1813 1164.07C1828.27 1156.44 1832.43 1147.07 1829.66 1128.68C1827.23 1111.68 1828.62 1110.64 1847.35 1118.62C1856.37 1122.44 1861.23 1127.99 1867.82 1141.87C1883.43 1175.17 1879.27 1192.87 1846.66 1228.25C1836.25 1239.36 1827.92 1250.46 1827.92 1252.54C1827.92 1255.32 1833.82 1256.01 1845.27 1254.97C1868.86 1252.54 1892.8 1237.27 1905.98 1216.11C1925.07 1185.23 1918.82 1141.87 1891.41 1116.19C1881.7 1106.82 1845.96 1089.13 1836.6 1089.13C1829.66 1089.13 1826.19 1081.84 1831.74 1078.37C1834.51 1076.64 1841.8 1075.25 1848.04 1075.25C1854.64 1075.25 1861.92 1072.48 1866.09 1068.31C1874.41 1059.99 1874.76 1056.86 1867.82 1050.97C1863.31 1047.5 1861.23 1047.5 1855.68 1052.7C1851.86 1056.17 1840.06 1061.03 1828.96 1063.46C1808.84 1068.31 1732.86 1070.05 1722.45 1066.23C1718.98 1064.84 1716.9 1059.99 1716.9 1052.7C1716.9 1046.46 1713.78 1037.78 1710.31 1033.27L1703.37 1024.95L1691.92 1037.44C1685.68 1044.37 1673.19 1052.7 1663.82 1056.17C1633.63 1067.62 1595.82 1054.09 1558.35 1018.7C1521.92 984.353 1507.69 950.006 1508.04 897.271C1508.04 880.271 1509.78 864.658 1511.86 862.577C1514.29 860.148 1516.02 860.495 1517.06 863.964C1517.76 866.74 1520.53 874.72 1522.61 882.005C1528.16 899.699 1546.55 917.047 1579.86 936.128C1599.29 947.578 1610.39 956.251 1617.33 966.659C1625.65 979.496 1628.08 980.884 1633.63 978.108C1645.43 971.863 1648.55 961.802 1642.31 949.659C1638.14 940.986 1637.8 938.21 1641.27 935.781C1648.9 931.271 1676.65 932.659 1684.63 938.21C1691.23 942.72 1692.61 942.72 1697.47 937.863C1704.76 930.924 1705.1 931.618 1690.53 916.006L1678.39 902.128L1691.23 899.699C1700.59 897.965 1707.19 899.005 1714.12 902.822C1726.96 910.455 1726.61 904.21 1713.08 893.801C1703.72 886.516 1703.02 885.128 1708.23 880.964C1711.35 878.536 1723.49 875.413 1735.29 874.373C1755.41 872.291 1756.45 871.944 1748.47 867.434C1738.06 861.536 1724.53 863.617 1663.82 880.964C1634.33 889.638 1608.31 894.842 1596.86 894.842C1580.2 894.842 1576.39 893.454 1564.94 883.046L1552.1 871.25L1550.02 791.8C1547.94 702.983 1544.82 687.717 1535.45 721.371C1521.22 772.025 1483.41 831.352 1398.75 935.435C1335.26 1013.84 1314.79 1056.86 1318.96 1105.44C1322.08 1144.64 1343.94 1170.66 1386.26 1184.89C1408.82 1192.52 1414.02 1197.38 1401.18 1199.46C1389.04 1201.54 1358.51 1190.44 1341.51 1177.6C1316.88 1159.56 1306.81 1139.44 1304.73 1105.78C1301.26 1045.76 1316.18 1012.8 1385.57 926.067C1466.41 825.107 1512.9 750.861 1522.96 705.758C1526.78 688.758 1526.43 685.289 1517.41 659.962C1512.2 645.044 1507 627.002 1506.31 620.064C1504.92 608.615 1505.61 606.533 1513.24 603.064C1538.57 591.614 1585.06 645.737 1584.71 686.677C1584.71 695.35 1580.2 716.167 1575 733.514C1564.59 766.127 1565.29 769.943 1580.2 769.943C1595.47 769.943 1609.35 746.004 1609.35 719.636C1609.35 711.31 1610.74 703.677 1612.12 702.636C1616.63 699.86 1631.55 716.861 1645.43 740.106C1665.9 773.759 1662.08 799.086 1633.29 823.025C1620.8 833.086 1619.06 836.209 1621.14 844.189C1626.7 866.046 1662.78 874.026 1682.21 857.719C1692.61 849.046 1693.31 847.311 1691.92 829.964C1690.88 819.903 1690.88 811.576 1691.92 811.576C1692.61 811.576 1697.82 815.045 1703.72 818.862C1736.33 842.107 1788.72 840.372 1824.11 815.045C1849.09 796.657 1852.21 774.106 1830.35 764.739C1815.78 758.841 1808.49 762.657 1781.08 790.759C1751.59 821.29 1732.17 828.229 1709.61 816.78C1698.86 810.882 1698.86 804.637 1710.31 804.637C1720.02 804.637 1718.29 798.739 1706.84 792.494C1696.08 786.943 1685.68 774.8 1685.68 767.514C1685.68 765.433 1690.19 760.575 1696.08 757.453C1709.61 749.126 1711.7 742.534 1701.63 738.718C1687.76 733.514 1669.37 715.126 1654.8 691.881C1646.82 679.391 1640.57 667.942 1640.57 666.554C1640.57 664.819 1646.47 659.268 1653.76 654.411C1669.02 643.656 1678.74 628.737 1678.74 615.9C1678.74 605.492 1675.96 604.798 1666.25 612.084C1662.43 614.86 1652.02 616.941 1640.92 617.288C1613.16 617.288 1598.25 606.88 1565.98 565.247C1531.63 520.491 1516.71 505.92 1488.26 491.001C1457.04 474.695 1400.84 455.613 1358.51 446.939C1339.08 443.123 1322.08 438.266 1320.69 436.184C1319.65 433.755 1312.71 409.469 1305.77 382.061C1284.96 298.795 1306.64 190.913 1323.64 152.749C1331.62 134.708 1327.46 135.055 1316.01 153.443C1311.15 161.423 1302.48 168.362 1292.77 172.525C1284.09 175.994 1259.49 184.504 1263.31 183.81C1267.12 182.769 1261.43 182.355 1261.43 187.374C1267.33 184.945 1303.52 172.178 1300.75 184.321C1294.85 212.076 1274.9 328.979 1284.61 368.53C1293.28 404.959 1295.71 423 1291.9 423C1308.27 424.937 1295.03 367.665 1289.12 373.075C1286.29 375.666 1296.07 198.872 1300.75 184.321C1302.45 179.022 1281.9 246.986 1274.81 296.118C1268.49 339.938 1271.47 413.637 1271.47 428.283C1269.96 450.951 1279.26 351.894 1278.16 352.999C1276.88 354.433 1273.37 381.36 1270.86 401.852C1269 417.095 1270.14 438.146 1256.41 445.013V445.013C1266.12 453.34 1263.1 443.34 1263.1 443.34C1263.1 443.34 1226.67 432.021 1194.06 413.98C1148.61 389 1130.57 376.857 1117.73 363.326C1091.02 334.877 1080.95 324.815 1068.81 314.754C1062.57 309.55 1054.59 298.448 1050.77 290.468C1044.53 276.59 1043.83 276.244 1043.83 285.611C1043.83 293.591 1042.79 294.978 1037.93 292.897C1034.46 291.509 1012.61 285.611 989.362 280.06C964.729 274.162 943.218 266.876 937.667 262.366C926.565 253.692 918.585 235.998 921.361 225.937C922.402 221.773 921.708 218.304 919.626 218.304C911.993 218.304 901.238 231.488 897.075 246.06L892.565 261.672L877.299 260.631C855.095 258.896 838.095 254.039 827.686 246.06C818.666 239.121 818.666 239.121 815.196 245.712C813.115 249.529 811.38 255.08 811.38 257.856C811.38 264.794 800.278 265.141 787.094 258.203C777.033 252.998 777.033 252.998 775.992 264.101C775.298 272.774 772.869 275.897 766.624 277.284C762.114 278.325 755.175 283.182 751.359 288.386C742.685 300.183 746.849 314.06 762.461 324.815C775.992 333.836 787.094 330.713 787.094 317.53C787.094 304.346 801.666 286.305 816.584 281.448C827.339 277.978 834.278 277.978 852.666 281.448C864.809 283.876 875.564 287.346 876.258 289.427C876.605 291.162 871.054 296.366 863.421 300.876C848.503 309.203 837.748 325.509 841.217 334.183C844.686 343.203 852.319 340.428 869.666 324.468C893.605 302.264 906.095 296.713 927.953 299.142C959.177 302.264 981.035 316.836 975.831 330.713C973.402 336.612 972.361 336.958 935.585 342.51C919.626 344.938 908.524 348.755 900.197 355.346C875.217 374.428 840.176 429.245 792.992 523.267C764.89 579.471 743.726 606.186 714.583 622.145C692.032 634.288 665.317 637.411 647.623 629.778C620.215 617.982 596.276 587.798 596.622 565.247C596.622 558.308 598.01 559.696 604.602 573.226C620.562 605.492 642.419 620.758 673.297 620.758C696.542 620.758 721.175 607.227 741.645 583.635C749.971 573.92 770.788 538.185 790.563 498.981C829.074 422.653 858.911 375.816 882.156 354.306C890.83 346.326 896.728 339.734 894.993 339.734C889.442 339.734 863.421 349.795 823.176 367.489C776.686 388.306 766.624 388.306 755.175 368.877C751.359 362.285 746.849 357.775 745.461 358.816C743.726 359.857 738.522 371.306 733.318 384.49C721.869 415.021 706.603 436.184 691.685 442.082C673.644 449.715 653.521 451.796 640.684 447.633C618.827 440.347 603.908 419.531 620.562 419.531C641.031 419.531 655.256 401.49 655.256 376.51C655.256 370.612 657.684 361.938 660.807 357.775C665.664 350.836 665.664 350.142 660.46 350.142C650.399 350.142 642.419 356.734 630.97 374.775C618.48 393.857 606.684 400.796 596.276 395.245C592.806 393.51 584.479 384.49 577.888 375.469C564.704 357.081 535.214 295.672 538.336 292.55C539.377 291.509 547.704 293.244 557.071 296.366C569.908 300.876 575.806 301.57 583.439 298.448C594.888 293.937 595.929 287.693 585.173 287.693C572.684 287.693 535.908 268.611 527.234 258.203C519.601 248.141 514.397 233.223 517.52 230.1C518.56 229.059 524.111 230.794 530.01 233.57C546.316 242.243 567.132 240.855 577.888 230.1C588.643 219.345 587.255 217.61 571.296 222.467C560.194 225.937 556.03 224.896 523.071 209.631C503.295 200.61 476.927 189.508 464.784 184.998L442.927 177.018L463.397 198.528C492.54 229.059 511.969 260.284 551.52 339.734C581.01 398.367 589.337 412.592 605.643 428.898C616.398 439.306 631.317 451.103 639.296 454.572C676.766 471.572 720.481 453.878 736.787 414.674C743.379 399.061 747.196 400.449 744.073 417.102C740.951 433.062 718.052 458.735 698.277 468.103C667.399 483.368 626.46 470.531 593.153 435.143C581.01 422.306 567.826 400.449 544.928 354.999C512.315 290.468 482.825 241.202 462.009 215.529C443.621 192.977 428.008 183.957 401.988 181.528C372.845 178.406 366.6 175.283 367.987 163.834C370.416 143.711 420.029 131.568 445.702 144.752C453.335 148.569 461.662 154.467 464.437 157.589C466.866 160.712 474.846 167.65 482.131 173.548L495.662 183.957L499.479 175.283C504.683 163.834 497.744 152.385 477.274 139.548L462.703 130.528L474.846 125.323C481.438 122.548 496.009 120.119 506.764 120.119C534.867 119.425 550.479 131.915 556.377 160.018C557.765 167.304 560.194 169.732 566.785 169.732C577.194 169.732 591.765 156.895 594.541 145.446C596.969 134.344 585.867 118.731 574.418 116.997C568.52 116.303 566.438 113.18 565.745 104.854L564.704 93.7517L552.908 99.3027C539.377 105.895 530.356 103.466 530.356 93.4047C530.356 82.9964 523.418 81.9557 508.152 89.9354C497.397 95.4864 463.05 102.078 451.601 101.037C450.213 100.691 447.437 94.4454 445.009 86.4657C440.845 72.2411 431.478 58.7105 425.58 58.7105C424.192 58.7105 422.804 59.0574 422.457 59.4044ZM304.15 347.367C309.007 353.959 312.823 384.837 308.66 384.837C303.109 384.837 294.436 365.755 294.436 353.612C294.436 342.51 298.252 340.081 304.15 347.367ZM825.258 397.673C825.258 411.551 799.237 434.796 775.298 442.429C753.788 449.368 749.624 447.633 755.175 435.143C757.257 430.633 760.032 418.837 761.42 409.469C763.502 393.857 764.543 392.469 770.094 395.245C779.114 400.102 801.319 399.408 811.38 393.51C823.523 386.571 825.258 386.918 825.258 397.673ZM1276.48 445.013C1283.08 451.952 1283.57 442.082 1281.83 452.143C1280.45 459.082 1278.02 464.633 1276.63 464.633C1286.81 465.206 1284.61 442.082 1284.61 436.184C1284.61 432.021 1267.12 434.952 1276.48 445.013ZM1266.29 465.711C1266.29 474.385 1300.95 525.316 1299.91 525.316C1298.87 525.316 1302.65 494.123 1297.1 487.878C1287.04 477.123 1284.26 464.633 1289.12 452.143C1290.85 446.939 1272.9 443.664 1281.57 453.378C1289.21 461.705 1266.29 453.568 1266.29 465.711ZM1321.66 470.108C1324.08 475.659 1307.23 436.531 1308.27 446.939C1309.66 464.286 1326.51 482.698 1321.66 476.8C1316.8 470.902 1324.86 470.878 1324.86 459.429C1324.86 451.103 1317.15 460.046 1321.66 470.108ZM1372.73 480.94C1400.49 498.981 1442.47 542.695 1455.65 567.328C1476.82 607.227 1486.88 662.391 1481.33 707.84C1474.39 760.228 1455.31 794.229 1422 812.964C1406.39 821.637 1399.1 823.719 1380.37 823.719C1358.51 823.719 1357.81 824.066 1356.77 833.086C1355.39 845.923 1364.75 862.577 1376.9 868.822C1382.79 871.944 1387.3 875.413 1387.3 876.801C1387.3 889.291 1301.96 988.864 1281.83 999.619C1275.59 1003.09 1275.24 1002.05 1277.32 972.21C1279.06 942.373 1286 916.7 1339.08 734.208C1345.32 712.697 1346.71 710.963 1355.39 710.963C1360.59 710.963 1368.22 708.534 1372.39 705.758L1380.02 700.554L1373.43 685.636C1364.41 666.207 1364.75 635.676 1373.43 589.533C1382.79 541.655 1379.32 521.532 1355.73 486.144C1350.18 477.817 1345.67 470.531 1345.67 469.491C1345.67 465.327 1355.04 469.144 1372.73 480.94ZM1278.16 504.879C1287.18 518.756 1285.73 537.697 1279.83 547.065C1277.4 551.228 1300.22 555.532 1294.32 550.328C1286 542.695 1280.79 499.328 1288.08 499.328C1288.77 499.328 1272.95 497.246 1278.16 504.879ZM1319.98 538.879C1323.1 552.41 1333.18 548.247 1328.32 536.104C1324.16 524.307 1320.69 540.373 1324.86 540.373C1326.59 540.373 1318.59 532.981 1319.98 538.879ZM1269.79 593.002C1272.92 604.798 1287.04 593.002 1283.57 593.002C1279.41 593.002 1276.28 583.982 1276.28 571.839C1276.28 560.043 1266.67 581.9 1269.79 593.002ZM1308.27 569.41C1308.27 572.186 1313.7 572.16 1311.62 572.16C1309.88 572.16 1314.45 573.226 1314.45 570.451C1314.45 567.675 1309.88 569.41 1311.62 569.41C1313.7 569.41 1308.27 566.634 1308.27 569.41ZM1321.39 679.738C1321.39 683.554 1333.88 663.218 1328.32 663.218C1323.81 662.871 1313.41 676.268 1317.92 676.268C1320 676.268 1321.39 678.003 1321.39 679.738ZM1199.96 720.677C1199.96 729.004 1190.94 736.983 1124.32 786.943C1069.16 828.576 1052.51 844.536 1050.08 858.413C1049.38 864.311 1051.12 865.699 1062.22 866.393C1077.14 867.781 1077.83 869.515 1067.42 882.699C1057.71 895.189 1035.5 905.25 1017.46 905.25C997.688 905.25 964.035 897.965 964.035 893.801C964.035 891.72 987.974 865.699 1017.12 836.209C1053.2 799.086 1072.97 775.841 1080.26 762.31L1090.67 742.187L1115.65 743.922C1140.28 745.31 1141.67 744.963 1167.69 730.044C1198.91 712.697 1199.96 712.35 1199.96 720.677ZM1113.22 721.371C1113.22 725.187 1099.34 733.167 1096.91 730.391C1095.87 729.351 1095.87 726.228 1096.91 723.106C1099.34 717.555 1113.22 715.82 1113.22 721.371ZM1524.35 839.678C1522.96 861.536 1520.53 864.311 1514.63 850.087L1509.78 838.637L1500.75 850.434C1491.39 861.883 1488.26 859.107 1495.2 845.229C1501.8 832.739 1512.9 821.984 1519.49 821.984C1524.69 821.984 1525.39 824.76 1524.35 839.678ZM1462.59 893.107C1461.55 899.352 1461.9 910.108 1463.63 917.047C1465.37 924.332 1465.02 939.598 1462.94 953.129C1459.82 973.251 1460.16 981.578 1466.75 1011.41C1478.55 1066.58 1475.77 1082.89 1452.18 1095.03C1441.77 1100.23 1441.77 1100.58 1448.37 1105.44C1453.22 1109.25 1460.16 1109.95 1473.35 1108.56C1490.69 1106.48 1491.73 1106.82 1495.2 1115.84C1501.45 1132.15 1506.31 1157.48 1504.57 1162.33C1503.18 1166.15 1496.24 1166.85 1475.43 1165.46C1448.02 1163.72 1448.02 1163.72 1448.71 1154.01C1449.41 1141.17 1445.24 1142.21 1439 1155.74C1433.45 1168.93 1425.12 1170.66 1394.59 1164.76C1378.98 1161.99 1373.08 1158.52 1358.86 1144.29C1338.73 1124.17 1327.63 1101.62 1327.63 1080.46C1327.63 1065.54 1336.3 1044.03 1341.86 1044.03C1343.59 1044.03 1348.45 1049.58 1352.61 1056.17C1366.49 1079.07 1387.65 1083.93 1415.06 1071.44C1427.2 1065.88 1434.49 1064.84 1447.33 1066.58C1462.59 1068.31 1463.63 1067.97 1460.86 1062.42C1453.22 1048.54 1443.16 1043.68 1412.98 1038.82C1361.98 1030.5 1355.73 1016.27 1383.14 971.864C1399.79 944.108 1456.69 877.148 1461.2 879.924C1462.94 880.965 1463.63 886.862 1462.59 893.107ZM946.688 919.128C946.688 920.863 945.3 922.598 943.218 922.598C941.483 922.598 939.749 920.863 939.749 919.128C939.749 917.046 941.483 915.659 943.218 915.659C945.3 915.659 946.688 917.046 946.688 919.128ZM1230.83 948.965C1228.75 954.516 1226.32 957.292 1225.28 954.863C1223.55 950.353 1230.83 934.741 1233.26 937.516C1234.3 938.21 1232.92 943.414 1230.83 948.965ZM1250.61 995.456C1251.3 1011.41 1250.26 1016.27 1246.45 1016.27C1242.98 1016.27 1241.59 1011.41 1241.59 996.149C1241.59 976.721 1244.02 968.741 1248.18 972.904C1249.22 973.945 1250.26 984.353 1250.61 995.456ZM887.36 1110.64C884.932 1115.15 882.503 1116.89 881.809 1114.46C880.769 1112.03 882.156 1106.82 884.585 1102.31C887.013 1097.8 889.442 1096.07 890.136 1098.5C891.177 1100.93 889.789 1106.13 887.36 1110.64ZM1503.53 1182.8C1503.53 1185.23 1500.06 1188.36 1495.9 1190.09C1486.88 1193.21 1486.18 1192.17 1491.73 1182.46C1495.55 1174.82 1503.53 1175.17 1503.53 1182.8ZM1423.73 1193.21C1424.77 1194.95 1423.39 1196.68 1420.26 1196.68C1417.14 1196.68 1415.75 1194.95 1416.79 1193.21C1417.84 1191.13 1419.57 1189.74 1420.26 1189.74C1420.96 1189.74 1422.69 1191.13 1423.73 1193.21ZM1439.35 1191.13C1439.35 1192.17 1437.96 1193.91 1435.88 1194.95C1434.14 1195.99 1432.41 1195.29 1432.41 1193.56C1432.41 1191.48 1434.14 1189.74 1435.88 1189.74C1437.96 1189.74 1439.35 1190.44 1439.35 1191.13ZM1505.27 1202.93C1505.27 1212.99 1480.29 1223.4 1465.37 1219.58C1452.88 1216.46 1454.61 1210.56 1468.14 1210.56C1474.04 1210.56 1483.06 1208.13 1487.92 1205.7C1497.98 1200.15 1505.27 1199.11 1505.27 1202.93ZM1428.94 1240.74C1433.8 1261.56 1446.28 1277.87 1462.94 1286.89C1472.65 1291.74 1474.04 1293.48 1468.49 1293.83C1464.67 1293.83 1454.26 1289.32 1445.24 1283.76C1427.55 1272.32 1415.06 1252.19 1415.06 1234.85C1415.06 1218.19 1424.08 1222.01 1428.94 1240.74ZM1466.06 1236.23C1466.75 1236.58 1464.33 1243.17 1460.51 1250.46C1454.26 1263.3 1453.92 1263.3 1450.1 1256.36C1448.02 1252.54 1446.28 1244.91 1446.28 1240.05C1446.28 1231.38 1447.33 1230.68 1455.65 1233.11C1461.2 1234.5 1465.71 1235.89 1466.06 1236.23Z" fill="white"/>
<path d="M740.257 166.263C726.032 182.222 730.889 227.325 749.277 250.917C757.951 262.019 764.543 263.06 758.991 252.305C753.093 241.202 754.481 220.733 762.461 202.345C771.828 181.875 771.828 167.651 763.155 162.793C753.093 157.589 747.195 158.63 740.257 166.263Z" fill="white"/>
<path d="M808.257 1067.27C808.257 1069.7 805.135 1071.78 801.666 1071.78C791.257 1071.78 789.87 1075.95 798.196 1084.62C808.951 1096.07 811.38 1131.46 802.359 1150.19C793.339 1168.93 772.522 1188.01 746.849 1200.5C724.644 1211.6 710.767 1212.64 731.583 1201.89C749.971 1192.17 740.604 1192.17 710.073 1201.54C674.685 1212.64 666.705 1216.8 683.705 1216.46C690.644 1216.46 700.358 1218.89 705.562 1222.36C717.705 1230.34 714.93 1232.76 701.052 1226.17C692.379 1221.66 687.521 1221.32 676.419 1224.44C662.542 1228.25 653.868 1234.85 663.235 1234.85C669.48 1234.85 683.011 1249.42 683.011 1256.7C683.011 1266.76 677.113 1266.07 674.685 1255.66C672.256 1243.17 660.807 1237.62 649.358 1242.83C638.603 1247.68 639.296 1251.5 650.052 1249.42C660.46 1247.68 669.133 1253.93 669.133 1262.95C669.133 1272.66 682.317 1271.27 687.174 1260.87C690.297 1254.27 689.95 1250.81 685.093 1243.87C681.97 1239.01 679.542 1234.15 679.542 1232.76C679.542 1231.03 697.236 1232.07 715.971 1235.54C723.257 1236.58 724.297 1231.72 719.44 1220.27C717.705 1216.11 719.787 1214.03 728.808 1212.29C781.543 1200.5 814.502 1162.68 814.849 1113.07C814.849 1093.99 809.298 1055.48 808.257 1067.27Z" fill="white"/>
<path d="M743.032 1301.11C730.195 1304.93 728.113 1309.44 738.175 1312.21C747.195 1314.3 757.95 1331.3 753.44 1335.81C751.012 1338.23 748.93 1336.5 747.542 1330.6C744.767 1318.81 734.705 1313.6 723.256 1318.11C712.848 1321.93 711.113 1326.79 720.828 1324.01C729.501 1321.93 738.175 1327.48 741.991 1337.54C746.154 1347.6 749.277 1347.95 757.95 1338.58C764.195 1331.64 764.195 1330.95 758.297 1320.89C751.012 1308.05 755.175 1303.19 771.481 1305.97C781.196 1307.36 781.543 1307.36 775.298 1302.5C767.665 1296.6 759.338 1296.25 743.032 1301.11Z" fill="white"/>
</svg>
