<svg width="187" height="59" viewBox="0 0 187 59" fill="none" xmlns="http://www.w3.org/2000/svg">
<path d="M19.8839 0.18183C19.6331 0.432671 19.645 0.552119 20.0034 1.61521C20.3259 2.57079 20.3139 2.97692 19.9675 3.35915C19.86 3.4786 19.8361 3.57416 19.9078 3.57416C20.087 3.57416 20.6603 2.86941 20.8634 2.37968C21.0903 1.81827 21.0067 0.564064 20.7201 0.241554C20.4453 -0.0570662 20.1348 -0.0809557 19.8839 0.18183Z" fill="white"/>
<path d="M14.5446 2.04523C14.5446 2.06913 14.5207 2.26024 14.5087 2.4633C14.461 2.92915 14.1862 3.38305 13.804 3.62195C13.6607 3.71751 12.8723 3.9564 12.0481 4.15947C10.8895 4.44614 10.4236 4.62531 9.92193 4.95977C9.16941 5.48534 7.79575 6.87094 7.19851 7.69513L6.78044 8.29237L7.48519 8.36404C8.14215 8.42377 9.18135 8.87767 9.18135 9.09268C9.18135 9.14046 9.31275 9.30768 9.47997 9.45102C9.6472 9.59436 9.77859 9.82131 9.77859 9.96465C9.77859 10.108 9.90999 10.3947 10.0772 10.6216C10.555 11.2666 10.3878 11.4697 9.82637 10.9202C9.39636 10.4902 9.25302 10.6455 9.34858 11.4339C9.45608 12.3656 9.77859 13.0225 10.3758 13.4884C10.9253 13.9184 10.8656 14.0976 10.2803 13.7989C9.76665 13.5361 9.20524 12.8433 9.04996 12.27C8.97829 11.9833 8.94246 11.41 8.97829 10.98C9.02607 10.323 9.01412 10.2633 8.91857 10.6216C8.72745 11.2666 8.88273 14.1931 9.18135 15.6982C9.52775 17.454 9.6472 17.6213 9.65915 16.3551C9.67109 15.7937 9.71887 15.2323 9.76665 15.1129C10.0892 14.2648 10.1011 17.4421 9.77859 18.9233C9.46803 20.3327 9.04996 21.1689 8.23771 21.9811C7.3538 22.8531 6.39821 23.319 5.31123 23.3787C4.65427 23.4265 4.39148 23.3787 4.06897 23.2114C3.67479 22.9964 3.6509 22.9964 3.50756 23.2114C3.31645 23.4623 3.38812 23.7131 3.72257 24.0834L3.96147 24.3462L3.67479 24.4537C3.51951 24.5134 2.9581 24.6209 2.44448 24.7045C0.89165 24.9315 0.222741 25.4571 0.0316236 26.5918C-0.0400453 27.0577 -0.0161557 27.1293 0.378023 27.5235C0.604975 27.7505 0.855816 27.9416 0.927485 27.9416C0.999154 27.9416 1.14249 27.7266 1.24999 27.4638C1.51278 26.8068 2.07419 26.3649 3.10144 25.9707C5.35901 25.1226 7.40158 24.1312 8.10632 23.534C8.51244 23.1995 8.48855 23.1995 7.5688 23.6534C7.04323 23.9162 5.92042 24.3462 5.06039 24.609C2.37281 25.4451 1.64417 25.8274 1.03499 26.7471L0.831926 27.0457V26.7591C0.819981 26.2693 1.38139 25.5885 2.06224 25.266C2.3967 25.1107 3.40006 24.7882 4.28398 24.5493C6.51766 23.952 7.62853 23.3787 8.59606 22.3634C10.0414 20.8225 10.5789 19.3533 10.4475 17.1913C10.4117 16.4985 10.3042 15.6026 10.2086 15.1845C10.125 14.7784 10.0653 14.444 10.1011 14.444C10.125 14.444 10.3519 14.5515 10.5908 14.6709C10.8895 14.8262 11.1045 15.0531 11.2478 15.3756C11.3673 15.6384 11.5345 15.8893 11.63 15.9251C11.857 16.0087 11.857 15.7937 11.63 15.3995C11.2956 14.8142 11.5106 14.0617 11.9287 14.3245C12.1676 14.4798 12.5259 14.4798 12.5259 14.3245C12.5259 14.2528 12.4423 14.2051 12.3467 14.2051C12.1198 14.2051 11.6898 13.5242 11.6898 13.1539C11.6898 12.8433 11.7734 12.8314 12.0959 13.0703C12.4303 13.3211 12.9679 13.2972 13.1231 13.0225C13.2187 12.8314 13.1829 12.7478 12.8723 12.5208C12.0839 11.9594 12.0242 10.98 12.7648 10.98C13.0037 10.98 13.1829 10.8844 13.3143 10.6813C13.6368 10.1797 13.4934 9.97659 12.7767 9.88103C12.2751 9.82131 11.9645 9.67797 11.3195 9.22406C9.83832 8.18486 9.59942 8.08931 8.54828 8.13709C7.97493 8.16098 7.64047 8.12514 7.66436 8.05347C7.72408 7.86236 8.85884 7.21734 9.55164 6.99039C10.3878 6.70372 11.8212 6.6201 12.6692 6.78733C13.7323 7.01428 14.9746 7.67124 15.6793 8.38793C16.5871 9.31963 16.826 10.3588 16.3482 11.2547C16.2168 11.4936 16.1093 11.7205 16.1093 11.7444C16.1093 11.7683 16.2646 11.8519 16.4557 11.9355C16.7424 12.055 16.8738 12.043 17.2441 11.8639C17.4949 11.7444 17.7219 11.7086 17.7816 11.7683C17.9847 11.9714 18.9642 14.0498 19.215 14.8142C19.4061 15.3756 19.4658 15.7459 19.4181 16.1998C19.3464 16.9165 19.5733 17.1315 19.9795 16.7254C20.1945 16.4985 20.2064 16.4387 20.0511 15.8176C19.9675 15.4593 19.9317 15.1248 19.9675 15.089C20.0153 15.0412 20.3736 15.3159 20.7917 15.6982C21.7115 16.5582 22.2848 16.821 23.1926 16.8329C23.9571 16.8329 24.8529 16.4626 25.4024 15.9132C25.6533 15.6623 25.7369 15.6384 25.9877 15.7459C26.3819 15.9251 26.6566 15.9132 27.1583 15.6743C27.3853 15.5668 27.6122 15.507 27.648 15.5548C27.7555 15.6623 26.9433 17.466 26.4416 18.2305C25.6771 19.3891 25.1635 19.4488 24.5304 18.4455C24.1482 17.8243 23.9093 17.6093 23.551 17.5138C23.2285 17.4421 23.2165 17.5138 23.4554 17.8363C23.551 17.9677 23.6346 18.2424 23.6346 18.4455C23.6346 19.3174 24.1243 19.9386 24.8171 19.9386C25.2113 19.9386 25.2232 20.1655 24.841 20.5239C24.4229 20.918 23.8018 21.0375 22.9896 20.8822C21.9981 20.703 21.5323 20.2014 21.0067 18.7799C20.6364 17.7527 20.4573 17.6332 20.2184 18.2185C19.9556 18.8516 19.9675 19.9147 20.2661 20.5478C20.7439 21.6108 21.6517 22.22 22.8701 22.3036C23.8257 22.3634 24.4827 22.0767 25.4263 21.1808C25.8205 20.7986 26.1788 20.5358 26.2266 20.5716C26.2624 20.6194 26.2385 20.9539 26.1549 21.3242C26.0235 21.9214 26.0235 22.017 26.2147 22.22C26.4536 22.4948 26.6566 22.5067 26.8477 22.2798C26.9433 22.1603 26.9552 22.0886 26.8597 22.0289C26.6566 21.8975 26.7283 21.1569 27.0508 20.2014C27.3972 19.1622 28.3767 17.1913 28.5558 17.1913C28.6156 17.1913 28.8306 17.2749 29.0336 17.3824C29.3323 17.5377 29.4517 17.5377 29.7384 17.4302C30.1445 17.2629 30.1564 17.1793 29.8817 16.7493C29.595 16.3193 29.607 15.2323 29.8937 14.6948C30.2042 14.1095 31.0404 13.345 31.8407 12.915C33.7399 11.9117 36.0572 11.9594 37.8847 13.0584C38.2192 13.2614 38.5059 13.4764 38.5298 13.5481C38.5537 13.6198 38.1595 13.6675 37.5025 13.6675H36.4394L35.5913 14.2648C34.2296 15.2084 34.0505 15.304 33.3935 15.3876C32.7007 15.4712 32.5574 15.6862 32.8799 16.1759C33.0351 16.4148 33.1785 16.4746 33.5488 16.4746C33.9788 16.4746 34.0266 16.4985 34.0266 16.7732C34.0266 17.2032 33.7399 17.7168 33.2979 18.0632C32.9515 18.326 32.9396 18.3619 33.1307 18.541C33.3696 18.7919 33.6921 18.7919 34.146 18.5649L34.5044 18.3738V18.756C34.5044 19.0308 34.3969 19.2458 34.0743 19.5324C33.5966 19.9863 33.8116 20.1058 34.3849 19.6997C34.5641 19.5683 34.7433 19.4966 34.791 19.5444C34.9344 19.6877 34.8508 20.2372 34.6238 20.7628C34.4924 21.0494 34.3849 21.3242 34.3849 21.3839C34.3849 21.6228 34.6358 21.4675 34.8627 21.1092C35.1135 20.6911 35.3286 19.7713 35.6391 17.8124C35.7466 17.1435 35.9138 16.3551 36.0214 16.0565C36.2483 15.3756 37.1083 14.4201 37.7653 14.0976C38.5895 13.6914 39.0314 13.7631 40.3334 14.4917C40.9785 14.8381 41.8385 15.3159 42.2685 15.5548C43.2957 16.1162 43.5346 16.391 43.6302 17.1554C43.6302 18.5027 43.9622 17.7013 43.7894 18.1045C43.3117 17.7103 45.1111 18.2826 44.3108 18.0437C43.2716 17.7331 43.4184 18.0289 44.6965 18.662C45.461 19.0323 43.2873 17.4614 43.7173 17.8556L43.6238 17.1068C43.6238 17.1068 43.6206 17.6535 43.6021 17.9919C43.5739 18.5076 43.6302 18.3977 43.5466 19.2935C43.463 20.1894 43.0807 21.3481 42.6746 21.9692C42.5074 22.22 42.0774 22.6381 41.719 22.877L41.0621 23.3309L40.202 23.1756C39.7242 23.092 39.1389 22.9964 38.8881 22.9606L38.4342 22.8889L38.6134 23.3428C38.7209 23.5937 38.7925 23.8087 38.7806 23.8206C38.7567 23.8326 38.4103 23.7967 37.9922 23.7251C37.4189 23.6295 37.2158 23.6295 37.0964 23.749C36.9769 23.8684 37.0247 23.952 37.2994 24.179C37.5742 24.394 37.622 24.5134 37.5622 24.7523C37.4308 25.2779 36.5828 26.2215 35.9975 26.5082C35.2688 26.8666 34.6358 26.7829 33.1068 26.1738C32.4618 25.911 31.9243 25.7079 31.9004 25.7318C31.8765 25.7557 31.9123 25.9707 31.984 26.2215C32.0557 26.4724 32.0915 26.6874 32.0796 26.7113C32.0557 26.7232 31.7571 26.6396 31.4226 26.5082C30.2162 26.0424 29.9892 26.2813 30.8612 27.0935C31.1598 27.3682 31.3987 27.631 31.3987 27.6908C31.3987 27.7505 31.2434 27.8221 31.0404 27.858C30.2401 28.0252 30.9806 28.4194 32.0796 28.4194C32.9038 28.4194 33.9191 28.073 35.3166 27.3324C36.4872 26.6993 36.738 26.7113 35.9139 27.3802C35.0777 28.0372 34.3371 28.4552 31.6973 29.7572C29.38 30.9039 28.2931 31.6087 28.2931 31.967C28.2931 32.0387 28.5439 32.1462 28.8545 32.194C29.1531 32.2537 29.4278 32.3492 29.4517 32.4209C29.4636 32.4806 29.2128 32.7315 28.8784 32.9584C28.2931 33.3526 27.863 33.9259 28.0183 34.0812C28.0661 34.1171 28.2214 34.1529 28.3886 34.1529C28.7589 34.1529 28.6753 34.3799 28.2214 34.6307C27.6839 34.9413 27.5166 35.3354 27.66 35.9566L27.7914 36.4821L27.8033 36.0043C27.8153 35.5027 27.9825 35.1204 28.1258 35.2518C28.1617 35.2996 28.1497 35.5027 28.0781 35.6938C27.9944 35.9446 27.9944 36.1955 28.0781 36.506C28.1497 36.7569 28.2453 37.2227 28.2931 37.5572C28.3767 38.1544 28.3886 38.1544 28.4006 37.6766C28.4245 37.0794 28.6633 36.1357 28.95 35.5863C29.6667 34.1887 31.124 32.4806 31.6018 32.4806C32.1273 32.4806 32.0437 32.8868 31.4704 33.1256C31.2076 33.2332 31.7093 33.4362 32.2587 33.4362C33.0471 33.4362 33.9907 33.054 35.0538 32.2895C36.0214 31.5967 36.1886 31.525 36.093 31.8595C36.0214 32.1701 35.006 33.0301 32.8321 34.6546C31.8168 35.4071 30.7776 36.2313 30.5267 36.4821C30.0012 36.9958 29.7862 37.4497 29.9534 37.6647C30.1564 37.9036 30.1445 38.8592 29.9295 39.2892C29.7264 39.6714 29.7384 39.6953 29.9773 39.9581C30.264 40.2686 30.3834 40.9734 30.2759 41.7259C30.1803 42.3232 29.4517 43.2548 28.7231 43.6968C28.2333 44.0074 27.3016 44.3418 27.3972 44.1865C27.433 44.1149 27.5405 44.0671 27.6241 44.0671C27.7197 44.0671 27.8511 43.9835 27.9347 43.8879C28.1378 43.649 28.0542 43.661 26.9313 44.0074C25.9877 44.294 25.271 44.6404 25.8802 44.5091C26.2983 44.4135 26.8597 44.6524 26.9911 44.9868C27.0508 45.1541 27.1702 45.2616 27.2539 45.2257C27.3972 45.178 27.4211 44.9749 27.2897 44.6643C27.23 44.521 27.4091 44.4135 28.0781 44.1865C28.7708 43.9596 29.0814 43.7685 29.5473 43.2907C29.8817 42.9682 30.2042 42.5859 30.2878 42.4545C30.4192 42.2276 30.4312 42.2276 30.6342 42.4307C30.8492 42.6337 30.8612 42.6098 30.9926 41.7737C31.2793 39.9461 31.4943 39.5639 36.2483 32.5762C36.4991 32.194 36.75 31.8834 36.7978 31.8834C36.8455 31.8834 36.8097 32.1103 36.7142 32.3731C36.4753 33.042 36.4991 33.6273 36.7739 34.2365C37.0606 34.8815 37.2517 34.8935 37.2517 34.2843C37.2517 33.5318 37.5025 32.6717 38.0161 31.5967C38.5298 30.5456 41.2651 26.4485 41.5279 26.341C41.6115 26.3052 41.8146 26.329 41.9938 26.4007L42.3043 26.5202L42.0415 26.7829C41.731 27.1293 41.719 27.2249 42.0177 27.2249C42.8777 27.2249 43.9647 26.4485 44.9202 25.1704C45.5055 24.382 45.5533 24.3462 45.5891 24.6448C45.6369 25.0509 45.3861 25.481 43.6421 27.9416C42.1371 30.0558 41.731 30.7606 41.6354 31.3936C41.5637 31.7878 41.5757 31.7878 41.946 31.7281C42.161 31.6803 42.4596 31.6206 42.6149 31.5728C42.8299 31.5131 42.8777 31.525 42.818 31.6325C42.7582 31.7162 42.6985 31.752 42.6627 31.7162C42.5432 31.5967 42.149 31.8953 41.9699 32.2417C41.8026 32.5642 41.8026 32.6598 41.9699 33.257C42.0774 33.6154 42.2207 33.9021 42.3043 33.8782C42.4596 33.8423 42.6388 34.774 42.4954 34.9174C42.3879 35.0368 42.3043 34.8696 42.2446 34.3918C42.2088 34.0932 41.934 33.9498 41.6115 34.0812C41.4682 34.129 41.4921 34.2126 41.719 34.4396C42.2924 35.001 42.2804 36.2432 41.7071 37.0674C41.2771 37.6766 40.3334 38.3933 39.6765 38.6203C39.1151 38.8114 38.9717 38.6919 39.4734 38.465C39.6526 38.3933 39.7601 38.2978 39.7362 38.2619C39.6526 38.1902 37.6936 38.7994 37.5503 38.9547C37.4667 39.0383 37.5264 39.0622 37.7175 39.0144C38.0281 38.9428 38.8045 39.2294 38.8045 39.4206C38.8045 39.4803 38.6253 39.4445 38.4103 39.337C38.0878 39.1817 37.9206 39.1697 37.5145 39.2772C37.0367 39.4086 36.8217 39.6475 37.1681 39.6475C37.4189 39.6475 37.7295 40.0417 37.7295 40.3523C37.7295 40.4956 37.6817 40.5792 37.61 40.5434C37.5503 40.5075 37.4906 40.3642 37.4906 40.2448C37.4906 40.1134 37.395 39.9581 37.2756 39.8984C37.0247 39.767 36.535 39.8506 36.535 40.0298C36.535 40.1014 36.6066 40.1253 36.7022 40.0895C36.9411 39.9939 37.3711 40.3403 37.3711 40.615C37.3711 40.8659 37.61 40.9137 37.825 40.6987C38.0042 40.5195 38.0161 39.9342 37.8489 39.8267C37.407 39.552 38.0878 39.325 38.5895 39.5758C38.7925 39.6833 39.0076 39.767 39.0673 39.767C39.1987 39.767 39.1867 39.3131 39.0434 39.2294C38.8045 39.0742 38.9359 38.9667 39.6167 38.7755C41.0023 38.3814 41.9938 37.4736 42.2685 36.303C42.3521 35.9685 42.4596 35.7057 42.5193 35.7057C42.5791 35.7057 42.6268 35.7535 42.6268 35.8252C42.6268 35.8849 42.8538 35.9446 43.1405 35.9446C43.4152 35.9446 43.7735 36.0282 43.9288 36.1477L44.2155 36.3388L44.1319 35.9207C44.0602 35.5385 44.096 35.4549 44.4305 35.1802C44.8605 34.8099 45.2069 34.7621 45.0755 35.0727C44.1319 37.2347 44.0124 38.4769 44.5858 39.7311C45.1711 41.0092 46.4731 41.9529 47.8706 42.1201L48.4798 42.1918V42.9562C48.4798 44.3179 49.1368 48.0447 49.3279 47.7461C49.3876 47.6625 49.4354 47.0772 49.4354 46.4561C49.4473 45.5124 49.4712 45.3571 49.5907 45.5602C49.8415 45.9783 49.7579 48.6181 49.4473 49.7409C49.1009 51.0429 48.8023 51.6162 48.0259 52.4524C47.2973 53.2407 46.5806 53.6468 45.4816 53.9335C44.7052 54.1366 44.3588 54.1007 43.7258 53.7663C43.3794 53.5871 43.3196 53.5871 43.2241 53.7424C43.0449 54.0291 43.0807 54.3277 43.3435 54.5427C43.4749 54.6621 43.5824 54.8174 43.5824 54.8891C43.5824 55.0444 43.4271 55.0922 41.9938 55.3072C40.5604 55.5222 39.8915 56.0955 39.784 57.1945C39.7362 57.7439 39.7601 57.8275 40.0945 58.162C40.2976 58.3531 40.5365 58.5203 40.632 58.5203C40.7276 58.5203 40.8948 58.2814 41.0143 57.9828C41.2771 57.2781 41.7071 56.9675 43.2241 56.3941C44.968 55.7372 46.4014 55.0563 47.4048 54.4113C47.8826 54.1007 48.2528 53.826 48.229 53.8021C48.2051 53.7782 47.6675 54.0171 47.0464 54.3157C46.4253 54.6263 45.1233 55.1161 44.1558 55.4027C42.1371 56 41.3249 56.418 40.8829 57.0869C40.5126 57.6484 40.417 57.6842 40.5365 57.2303C40.7754 56.2866 41.5757 55.7969 44.0602 55.128C46.1147 54.5785 47.2256 54.041 48.0976 53.169C50.0804 51.2101 50.594 49.1078 49.9012 45.7633C49.8296 45.4049 49.7937 45.0944 49.8296 45.0705C49.8535 45.0346 50.0446 45.1063 50.2596 45.2257C50.594 45.4169 50.6537 45.4288 50.9404 45.2616C51.1196 45.166 51.3107 44.963 51.3585 44.8196C51.4421 44.5927 51.3824 44.521 50.9165 44.306C50.6299 44.1627 50.391 44.0074 50.391 43.9596C50.391 43.8999 50.6657 43.8282 50.9882 43.7924C51.9557 43.6729 52.8874 42.8607 53.0785 41.9768L53.1622 41.6184L52.9233 41.9887C52.6844 42.3709 52.1469 42.6337 51.6332 42.6337C51.2629 42.6337 51.2749 42.5621 51.681 42.2157C51.9677 41.9768 52.0035 41.8573 52.0035 41.2362C52.0035 40.5792 52.0155 40.5434 52.3021 40.5434C52.5649 40.5434 52.6008 40.6031 52.6366 41.0451C52.6724 41.5109 52.6963 41.5467 52.9113 41.4034C53.0666 41.3078 53.1861 41.2959 53.3055 41.3795C54.0819 41.9529 54.058 41.9409 54.4164 41.7498C54.7389 41.5945 55.0494 41.1287 55.0494 40.8181C55.0494 40.7464 54.9658 40.5912 54.8583 40.4717C54.703 40.3045 54.6075 40.2806 54.3566 40.3762C53.5325 40.6987 52.6724 40.0178 52.4096 38.8472C52.326 38.5008 52.2902 38.1783 52.326 38.1425C52.3619 38.1066 52.6008 38.2261 52.8516 38.3933C53.4011 38.7636 54.1536 38.7755 54.1536 38.4172C54.1536 38.2739 53.8669 38.0708 53.2577 37.7602C52.2066 37.2466 51.8721 36.8285 51.7646 35.8968C51.6093 34.6426 52.1946 34.3679 52.8516 35.3832C53.4488 36.291 53.7116 36.518 54.5 36.7688C55.587 37.1272 56.8531 37.2705 59.8274 37.3661C62.1805 37.4497 62.5986 37.4855 63.1839 37.7244C64.008 38.035 64.7247 38.5366 65.0831 39.0622C65.4175 39.5281 65.537 40.5075 65.322 41.1406C65.1667 41.6184 64.5933 42.3351 64.1992 42.5382C63.9961 42.6457 64.008 42.6098 64.2708 42.3232C64.9875 41.5587 65.2623 40.412 64.9159 39.6117C64.665 39.0144 63.8289 38.3575 62.933 38.0827C62.288 37.8797 61.6549 37.82 59.1704 37.7244C56.1125 37.6169 55.0375 37.4736 54.0341 37.0316C53.7355 36.9002 53.4966 36.8405 53.4966 36.9002C53.4966 36.9599 54.0461 37.4736 54.715 38.0589C56.4589 39.5639 56.4828 39.5878 56.4828 40.0059C56.4828 40.4478 56.6859 40.4717 56.8531 40.0536C57.0203 39.6117 56.7934 39.0025 56.3275 38.6322C56.005 38.3814 55.9811 38.3097 56.1245 38.2141C56.5903 37.9155 57.6176 38.3336 58.3582 39.1339C58.7643 39.5639 58.8718 39.6356 58.8837 39.4564C58.9196 39.0144 58.8479 38.8711 58.4179 38.4172L57.9759 37.9514L59.7199 37.9991C62.2163 38.0589 62.4791 38.2858 61.7266 39.7192C61.4638 40.197 61.3683 40.5195 61.428 40.6628C61.4996 40.8778 61.5235 40.8659 61.7744 40.5792C61.9177 40.412 62.2044 40.185 62.4194 40.0775C62.945 39.8147 63.0883 39.4922 62.9927 38.8592C62.9091 38.2739 62.9569 38.238 63.6019 38.5128C63.9125 38.6442 64.0797 38.8353 64.3067 39.3131C64.8442 40.4598 64.7009 41.0689 63.578 42.2873C63.2197 42.6696 62.933 43.0518 62.933 43.1235C62.933 43.219 63.1361 43.2429 63.5303 43.2071C64.3425 43.1235 65.1667 42.5979 65.6206 41.8692C66.2776 40.8062 66.0626 39.3131 65.1189 38.4291C64.7845 38.1066 63.5542 37.4974 63.2316 37.4974C62.9927 37.4974 62.8733 37.2466 63.0644 37.1272C63.16 37.0674 63.4108 37.0197 63.6258 37.0197C63.8528 37.0197 64.1036 36.9241 64.247 36.7808C64.5336 36.4941 64.5456 36.3866 64.3067 36.1835C64.1514 36.0641 64.0797 36.0641 63.8886 36.2432C63.7572 36.3627 63.3511 36.5299 62.9689 36.6135C62.2761 36.7808 59.6601 36.8405 59.3018 36.7091C59.1823 36.6613 59.1107 36.4941 59.1107 36.2432C59.1107 36.0282 59.0032 35.7296 58.8837 35.5743L58.6448 35.2877L58.2507 35.7177C58.0356 35.9566 57.6056 36.2432 57.2831 36.3627C56.2439 36.7569 54.9419 36.291 53.6519 35.0727C52.3977 33.8901 51.908 32.7076 51.9199 30.892C51.9199 30.3067 51.9796 29.7692 52.0513 29.6975C52.1349 29.6139 52.1946 29.6258 52.2305 29.7453C52.2544 29.8408 52.3499 30.1156 52.4216 30.3664C52.6127 30.9756 53.2458 31.5728 54.3925 32.2298C55.0614 32.624 55.4436 32.9226 55.6825 33.2809C55.9692 33.7229 56.0528 33.7707 56.2439 33.6751C56.65 33.4601 56.7576 33.1137 56.5425 32.6956C56.3992 32.397 56.3873 32.3015 56.5067 32.2178C56.7695 32.0626 57.7251 32.1103 57.9998 32.3015C58.2268 32.4567 58.2745 32.4567 58.4418 32.2895C58.6926 32.0506 58.7046 32.0745 58.2029 31.537L57.7848 31.0592L58.2268 30.9756C58.5493 30.9159 58.7762 30.9517 59.0151 31.0831C59.4571 31.3459 59.4451 31.1309 58.9793 30.7725C58.6568 30.5217 58.6329 30.4739 58.8121 30.3306C58.9196 30.2469 59.3376 30.1394 59.7438 30.1036C60.4366 30.0319 60.4724 30.02 60.1977 29.8647C59.8393 29.6617 59.3735 29.7333 57.2831 30.3306C56.2678 30.6292 55.372 30.8084 54.9778 30.8084C54.4044 30.8084 54.273 30.7606 53.8789 30.4022L53.4369 29.9961L53.3652 27.2607C53.2936 24.2029 53.1861 23.6773 52.8635 24.8359C52.3738 26.5799 51.0718 28.6224 48.1573 32.2059C45.9714 34.9054 45.2666 36.3866 45.41 38.0589C45.5175 39.4086 46.27 40.3045 47.7273 40.7942C48.5037 41.057 48.6829 41.2242 48.2409 41.2959C47.8228 41.3676 46.7717 40.9853 46.1864 40.5434C45.3383 39.9222 44.9919 39.2294 44.9202 38.0708C44.8008 36.0043 45.3144 34.8696 47.7034 31.8834C50.4865 28.4074 52.0871 25.8513 52.4335 24.2984C52.5649 23.7131 52.553 23.5937 52.2424 22.7217C52.0632 22.2081 51.8841 21.587 51.8602 21.3481C51.8124 20.9539 51.8363 20.8822 52.0991 20.7628C52.971 20.3686 54.5716 22.232 54.5597 23.6415C54.5597 23.9401 54.4044 24.6568 54.2253 25.254C53.8669 26.3768 53.8908 26.5082 54.4044 26.5082C54.93 26.5082 55.4078 25.684 55.4078 24.7762C55.4078 24.4895 55.4556 24.2268 55.5033 24.1909C55.6586 24.0954 56.1723 24.6807 56.65 25.481C57.3548 26.6396 57.2234 27.5116 56.232 28.3358C55.802 28.6822 55.7422 28.7897 55.8139 29.0644C56.005 29.8169 57.2473 30.0917 57.9162 29.5303C58.2745 29.2316 58.2984 29.1719 58.2507 28.5747C58.2148 28.2283 58.2148 27.9416 58.2507 27.9416C58.2745 27.9416 58.4537 28.061 58.6568 28.1924C59.7796 28.9927 61.5833 28.933 62.8016 28.061C63.6617 27.428 63.7692 26.6516 63.0166 26.329C62.515 26.126 62.2641 26.2574 61.3205 27.2249C60.3052 28.276 59.6362 28.5149 58.8598 28.1208C58.4895 27.9177 58.4896 27.7027 58.8837 27.7027C59.2182 27.7027 59.1585 27.4996 58.7643 27.2846C58.394 27.0935 58.0356 26.6754 58.0356 26.4246C58.0356 26.3529 58.1909 26.1857 58.394 26.0782C58.8598 25.7915 58.9315 25.5646 58.5851 25.4332C58.1073 25.254 57.4742 24.6209 56.9726 23.8206C56.6978 23.3906 56.4828 22.9964 56.4828 22.9487C56.4828 22.8889 56.6859 22.6978 56.9367 22.5306C57.4623 22.1603 57.7968 21.6467 57.7968 21.2047C57.7968 20.8464 57.7012 20.8225 57.3667 21.0733C57.2353 21.1689 56.877 21.2406 56.4948 21.2525C55.5392 21.2525 55.0256 20.8942 53.9147 19.4608C52.7321 17.9199 52.2185 17.4182 51.239 16.9046C50.164 16.3432 48.229 15.6862 46.7717 15.3876C46.1028 15.2562 45.5175 15.089 45.4697 15.0173C45.4339 14.9337 45.195 14.0976 44.9561 13.1539C44.2394 10.2872 44.986 6.57291 45.5713 5.25898C45.8461 4.63785 45.7027 4.6498 45.3086 5.28287C45.1413 5.5576 44.8427 5.7965 44.5083 5.93983C44.2096 6.05928 43.3626 6.35226 43.494 6.32837C43.6254 6.29253 43.4293 6.27827 43.4293 6.45107C43.6324 6.36746 44.8785 5.92789 44.783 6.34596C44.5799 7.30154 43.893 11.3264 44.2274 12.6881C44.5261 13.9423 44.6097 14.5634 44.4783 14.5634C45.0421 14.6301 44.5863 12.6583 44.3827 12.8445C44.2852 12.9338 44.6221 6.84693 44.783 6.34596C44.8416 6.16352 44.1341 8.50343 43.8901 10.195C43.6725 11.7037 43.7749 14.2411 43.7749 14.7453C43.723 15.5257 44.0433 12.1153 44.0053 12.1533C43.9614 12.2027 43.8406 13.1298 43.7542 13.8353C43.6899 14.3601 43.7294 15.0848 43.2565 15.3213C43.591 15.608 43.4869 15.2637 43.4869 15.2637C43.4869 15.2637 42.2327 14.874 41.1098 14.2528C39.5451 13.3928 38.9239 12.9747 38.482 12.5089C37.5622 11.5294 37.2158 11.183 36.7978 10.8366C36.5828 10.6574 36.308 10.2752 36.1766 10.0005C35.9616 9.52269 35.9377 9.51075 35.9377 9.83326C35.9377 10.108 35.9019 10.1558 35.7347 10.0841C35.6152 10.0363 34.8627 9.83325 34.0624 9.64214C33.2143 9.43908 32.4737 9.18824 32.2826 9.03295C31.9004 8.73433 31.6257 8.12514 31.7212 7.77874C31.7571 7.63541 31.7332 7.51596 31.6615 7.51596C31.3987 7.51596 31.0284 7.96986 30.8851 8.47155L30.7298 9.00906L30.2042 8.97322C29.4398 8.9135 28.8545 8.74628 28.4961 8.47155C28.1856 8.23265 28.1856 8.23265 28.0661 8.4596C27.9944 8.59099 27.9347 8.78211 27.9347 8.87767C27.9347 9.11657 27.5525 9.12851 27.0986 8.88962C26.7522 8.71045 26.7522 8.71045 26.7163 9.09268C26.6925 9.3913 26.6088 9.4988 26.3938 9.54658C26.2385 9.58242 25.9997 9.74964 25.8683 9.92881C25.5696 10.3349 25.713 10.8127 26.2505 11.183C26.7163 11.4936 27.0986 11.3861 27.0986 10.9322C27.0986 10.4783 27.6003 9.85714 28.1139 9.68991C28.4842 9.57047 28.7231 9.57047 29.3561 9.68991C29.7742 9.77353 30.1445 9.89298 30.1684 9.96465C30.1803 10.0244 29.9892 10.2035 29.7264 10.3588C29.2128 10.6455 28.8425 11.2069 28.962 11.5055C29.0814 11.8161 29.3442 11.7205 29.9414 11.1711C30.7656 10.4066 31.1956 10.2155 31.9482 10.2991C33.0232 10.4066 33.7757 10.9083 33.5966 11.3861C33.5129 11.5891 33.4771 11.6011 32.211 11.7922C31.6615 11.8758 31.2793 12.0072 30.9926 12.2342C30.1326 12.8911 28.9261 14.7784 27.3016 18.0155C26.3341 19.9505 25.6055 20.8703 24.6021 21.4197C23.8257 21.8378 22.9059 21.9453 22.2968 21.6825C21.3531 21.2764 20.5289 20.2372 20.5409 19.4608C20.5409 19.2219 20.5887 19.2697 20.8156 19.7355C21.3651 20.8464 22.1176 21.3719 23.1807 21.3719C23.981 21.3719 24.8291 20.9061 25.5338 20.0939C25.8205 19.7594 26.5372 18.5291 27.218 17.1793C28.5439 14.5515 29.5712 12.9389 30.3715 12.1983C30.6701 11.9236 30.8731 11.6966 30.8134 11.6966C30.6223 11.6966 29.7264 12.043 28.3408 12.6522C26.7402 13.3689 26.3938 13.3689 25.9997 12.7C25.8683 12.4731 25.713 12.3178 25.6652 12.3536C25.6055 12.3894 25.4263 12.7836 25.2471 13.2375C24.853 14.2887 24.3274 15.0173 23.8138 15.2204C23.1926 15.4832 22.4998 15.5548 22.0579 15.4115C21.3053 15.1606 20.7917 14.444 21.3651 14.444C22.0698 14.444 22.5595 13.8228 22.5595 12.9628C22.5595 12.7597 22.6432 12.4611 22.7507 12.3178C22.9179 12.0789 22.9179 12.055 22.7387 12.055C22.3923 12.055 22.1176 12.2819 21.7234 12.9031C21.2934 13.56 20.8873 13.7989 20.5289 13.6078C20.4095 13.5481 20.1228 13.2375 19.8959 12.927C19.4419 12.2939 18.4266 10.1797 18.5341 10.0721C18.57 10.0363 18.8567 10.096 19.1792 10.2035C19.6211 10.3588 19.8242 10.3827 20.087 10.2752C20.4811 10.1199 20.517 9.90492 20.1467 9.90492C19.7167 9.90492 18.4505 9.24796 18.1519 8.88962C17.8891 8.54322 17.7099 8.02958 17.8175 7.92208C17.8533 7.88625 18.0444 7.94597 18.2475 8.04153C18.8089 8.34015 19.5256 8.29237 19.8959 7.92208C20.2661 7.55179 20.2184 7.49207 19.6689 7.6593C19.2867 7.77875 19.1433 7.74291 18.0086 7.21734C17.3277 6.90678 16.4199 6.52454 16.0018 6.36926L15.2493 6.09453L15.9541 6.83511C16.9574 7.88625 17.6263 8.96128 18.988 11.6966C20.0034 13.7153 20.29 14.2051 20.8514 14.7665C21.2217 15.1248 21.7354 15.5309 22.0101 15.6504C23.3001 16.2357 24.8052 15.6265 25.3666 14.2767C25.5935 13.7392 25.7249 13.787 25.6174 14.3603C25.5099 14.9098 24.7216 15.7937 24.0407 16.1162C22.9776 16.6418 21.5681 16.1998 20.4214 14.9815C20.0034 14.5395 19.5495 13.787 18.7611 12.2222C17.6383 10.0005 16.623 8.30432 15.9063 7.4204C15.2732 6.64399 14.7357 6.33343 13.8398 6.24981C12.8365 6.14231 12.6215 6.0348 12.6692 5.64062C12.7529 4.94782 14.461 4.52975 15.3449 4.98366C15.6077 5.11505 15.8943 5.31812 15.9899 5.42562C16.0735 5.53312 16.3482 5.77201 16.5991 5.97507L17.0649 6.33342L17.1963 6.0348C17.3755 5.64062 17.1366 5.24644 16.4319 4.80449L15.9302 4.49392L16.3482 4.31475C16.5752 4.21919 17.0769 4.13558 17.4472 4.13558C18.4147 4.11169 18.9522 4.54171 19.1553 5.50924C19.2031 5.76007 19.2867 5.84368 19.5136 5.84368C19.872 5.84368 20.3736 5.40173 20.4692 5.00755C20.5528 4.62531 20.1706 4.0878 19.7764 4.02807C19.5733 4.00418 19.5017 3.89668 19.4778 3.61L19.4419 3.22778L19.0358 3.41888C18.57 3.64584 18.2594 3.56223 18.2594 3.21582C18.2594 2.85748 18.0205 2.82165 17.4949 3.09638C17.1247 3.2875 15.9421 3.51445 15.5479 3.47861C15.5002 3.46667 15.4046 3.25166 15.321 2.97692C15.1777 2.48719 14.8551 2.02135 14.6521 2.02135C14.6043 2.02135 14.5565 2.03329 14.5446 2.04523ZM10.4714 11.9594C10.6386 12.1864 10.77 13.2495 10.6267 13.2495C10.4356 13.2495 10.1369 12.5925 10.1369 12.1744C10.1369 11.7922 10.2683 11.7086 10.4714 11.9594ZM28.4125 13.6914C28.4125 14.1692 27.5166 14.9695 26.6925 15.2323C25.9519 15.4712 25.8085 15.4115 25.9997 14.9815C26.0713 14.8262 26.1669 14.4201 26.2147 14.0976C26.2863 13.56 26.3222 13.5123 26.5133 13.6078C26.8238 13.775 27.5883 13.7512 27.9347 13.5481C28.3528 13.3092 28.4125 13.3211 28.4125 13.6914ZM43.9477 15.3213C44.1747 15.5602 44.1916 15.2204 44.1319 15.5668C44.0841 15.8057 44.0005 15.9968 43.9527 15.9968C44.3032 16.0165 44.2274 15.2204 44.2274 15.0173C44.2274 14.874 43.6252 14.9749 43.9477 15.3213ZM43.5968 16.0339C43.5968 16.3325 44.7899 18.086 44.7541 18.086C44.7183 18.086 44.8486 17.0121 44.6575 16.7971C44.3111 16.4268 44.2155 15.9968 44.3827 15.5668C44.4424 15.3876 43.8243 15.2748 44.1229 15.6093C44.3857 15.8959 43.5968 15.6158 43.5968 16.0339ZM45.5029 16.1853C45.5865 16.3764 45.0063 15.0292 45.0421 15.3876C45.0899 15.9848 45.6701 16.6187 45.5029 16.4156C45.3356 16.2126 45.613 16.2118 45.613 15.8176C45.613 15.5309 45.3476 15.8389 45.5029 16.1853ZM47.2614 16.5582C48.217 17.1793 49.6623 18.6844 50.1162 19.5324C50.8449 20.9061 51.1913 22.8053 51.0001 24.3701C50.7613 26.1738 50.1043 27.3444 48.9576 27.9894C48.4201 28.288 48.1692 28.3597 47.5242 28.3597C46.7717 28.3597 46.7478 28.3716 46.712 28.6822C46.6642 29.1241 46.9867 29.6975 47.4048 29.9125C47.6078 30.02 47.7631 30.1394 47.7631 30.1872C47.7631 30.6172 44.8247 34.0454 44.1319 34.4157C43.9169 34.5351 43.9049 34.4993 43.9766 33.472C44.0363 32.4448 44.2752 31.5609 46.1028 25.2779C46.3178 24.5373 46.3656 24.4776 46.6642 24.4776C46.8434 24.4776 47.1061 24.394 47.2495 24.2984L47.5123 24.1193L47.2853 23.6056C46.9747 22.9367 46.9867 21.8856 47.2853 20.2969C47.6078 18.6485 47.4884 17.9557 46.6761 16.7374C46.485 16.4507 46.3297 16.1998 46.3297 16.164C46.3297 16.0207 46.6522 16.1521 47.2614 16.5582ZM44.0053 17.3824C44.3159 17.8602 44.266 18.5123 44.0629 18.8348C43.9793 18.9781 44.765 19.1263 44.5619 18.9471C44.2752 18.6844 44.096 17.1913 44.3469 17.1913C44.3708 17.1913 43.8261 17.1196 44.0053 17.3824ZM45.4453 18.553C45.5528 19.0188 45.8997 18.8755 45.7325 18.4574C45.5891 18.0513 45.4697 18.6044 45.613 18.6044C45.6728 18.6044 45.3975 18.3499 45.4453 18.553ZM43.7173 20.4164C43.8248 20.8225 44.3111 20.4164 44.1916 20.4164C44.0483 20.4164 43.9408 20.1058 43.9408 19.6877C43.9408 19.2816 43.6098 20.0341 43.7173 20.4164ZM45.0421 19.6041C45.0421 19.6997 45.229 19.6988 45.1573 19.6988C45.0976 19.6988 45.2547 19.7355 45.2547 19.6399C45.2547 19.5444 45.0976 19.6041 45.1573 19.6041C45.229 19.6041 45.0421 19.5086 45.0421 19.6041ZM45.4936 23.4026C45.4936 23.534 45.9236 22.8338 45.7325 22.8338C45.5772 22.8219 45.2189 23.2831 45.3741 23.2831C45.4458 23.2831 45.4936 23.3428 45.4936 23.4026ZM41.3129 24.812C41.3129 25.0987 41.0023 25.3735 38.7089 27.0935C36.8097 28.5269 36.2364 29.0764 36.1527 29.5541C36.1289 29.7572 36.1886 29.805 36.5708 29.8289C37.0844 29.8767 37.1083 29.9364 36.75 30.3903C36.4155 30.8203 35.6511 31.1667 35.0299 31.1667C34.3491 31.1667 33.1904 30.9159 33.1904 30.7725C33.1904 30.7008 34.0146 29.805 35.018 28.7897C36.2603 27.5116 36.9411 26.7113 37.1919 26.2454L37.5503 25.5526L38.4103 25.6124C39.2584 25.6601 39.3062 25.6482 40.202 25.1346C41.2771 24.5373 41.3129 24.5254 41.3129 24.812ZM38.3267 24.8359C38.3267 24.9673 37.8489 25.2421 37.7653 25.1465C37.7295 25.1107 37.7295 25.0032 37.7653 24.8957C37.8489 24.7046 38.3267 24.6448 38.3267 24.8359ZM52.4813 28.9091C52.4335 29.6616 52.3499 29.7572 52.1469 29.2675L51.9796 28.8733L51.6691 29.2794C51.3465 29.6736 51.239 29.578 51.4779 29.1002C51.7049 28.6702 52.0871 28.2999 52.3141 28.2999C52.4933 28.2999 52.5171 28.3955 52.4813 28.9091ZM50.3551 30.7486C50.3193 30.9636 50.3312 31.3339 50.391 31.5728C50.4507 31.8237 50.4387 32.3492 50.3671 32.8151C50.2596 33.5079 50.2715 33.7946 50.4985 34.8218C50.9046 36.721 50.809 37.2824 49.9968 37.7005C49.6384 37.8797 49.6384 37.8916 49.8654 38.0589C50.0326 38.1902 50.2715 38.2141 50.7254 38.1664C51.3227 38.0947 51.3585 38.1066 51.4779 38.4172C51.6929 38.9786 51.8602 39.8506 51.8005 40.0178C51.7527 40.1492 51.5138 40.1731 50.7971 40.1253C49.8534 40.0656 49.8535 40.0656 49.8773 39.7311C49.9012 39.2892 49.7579 39.325 49.5429 39.7909C49.3518 40.2448 49.0651 40.3045 48.0139 40.1014C47.4764 40.0059 47.2734 39.8864 46.7836 39.3967C46.0908 38.7039 45.7086 37.9275 45.7086 37.1988C45.7086 36.6852 46.0072 35.9446 46.1983 35.9446C46.2581 35.9446 46.4253 36.1357 46.5686 36.3627C47.0464 37.151 47.775 37.3183 48.7187 36.8883C49.1368 36.6971 49.3876 36.6613 49.8296 36.721C50.3551 36.7808 50.391 36.7688 50.2954 36.5777C50.0326 36.0999 49.6862 35.9327 48.647 35.7655C46.8911 35.4788 46.6761 34.989 47.6198 33.4601C48.1931 32.5045 50.1521 30.1992 50.3074 30.2947C50.3671 30.3306 50.391 30.5336 50.3551 30.7486ZM32.5932 31.6445C32.5932 31.7042 32.5454 31.7639 32.4737 31.7639C32.414 31.7639 32.3543 31.7042 32.3543 31.6445C32.3543 31.5728 32.414 31.525 32.4737 31.525C32.5454 31.525 32.5932 31.5728 32.5932 31.6445ZM42.376 32.6717C42.3043 32.8629 42.2207 32.9584 42.1849 32.8748C42.1252 32.7195 42.376 32.182 42.4596 32.2776C42.4954 32.3015 42.4477 32.4806 42.376 32.6717ZM43.0569 34.2723C43.0807 34.8218 43.0449 34.989 42.9135 34.989C42.7941 34.989 42.7463 34.8218 42.7463 34.2962C42.7463 33.6273 42.8299 33.3526 42.9732 33.4959C43.0091 33.5318 43.0449 33.8901 43.0569 34.2723ZM30.5506 38.238C30.467 38.3933 30.3834 38.453 30.3595 38.3694C30.3237 38.2858 30.3715 38.1066 30.4551 37.9514C30.5387 37.7961 30.6223 37.7363 30.6462 37.82C30.682 37.9036 30.6342 38.0827 30.5506 38.238ZM51.7646 40.7225C51.7646 40.8062 51.6452 40.9137 51.5018 40.9734C51.1913 41.0809 51.1674 41.0451 51.3585 40.7106C51.4899 40.4478 51.7646 40.4598 51.7646 40.7225ZM49.0173 41.0809C49.0531 41.1406 49.0054 41.2003 48.8979 41.2003C48.7904 41.2003 48.7426 41.1406 48.7784 41.0809C48.8142 41.0092 48.874 40.9614 48.8979 40.9614C48.9218 40.9614 48.9815 41.0092 49.0173 41.0809ZM49.5548 41.0092C49.5548 41.0451 49.507 41.1048 49.4354 41.1406C49.3757 41.1765 49.3159 41.1526 49.3159 41.0928C49.3159 41.0212 49.3757 40.9614 49.4354 40.9614C49.507 40.9614 49.5548 40.9853 49.5548 41.0092ZM51.8243 41.4153C51.8243 41.7617 50.9643 42.1201 50.4507 41.9887C50.0207 41.8812 50.0804 41.6781 50.5462 41.6781C50.7493 41.6781 51.0599 41.5945 51.2271 41.5109C51.5735 41.3198 51.8243 41.284 51.8243 41.4153ZM49.1965 42.7173C49.3637 43.434 49.7937 43.9954 50.3671 44.306C50.7015 44.4732 50.7493 44.5329 50.5582 44.5449C50.4268 44.5449 50.0685 44.3896 49.7579 44.1985C49.1487 43.8043 48.7187 43.1115 48.7187 42.5143C48.7187 41.9409 49.0293 42.0723 49.1965 42.7173ZM50.4746 42.562C50.4985 42.574 50.4149 42.8009 50.2835 43.0518C50.0685 43.4937 50.0565 43.4937 49.9251 43.2549C49.8534 43.1235 49.7937 42.8607 49.7937 42.6934C49.7937 42.3948 49.8296 42.3709 50.1162 42.4545C50.3074 42.5023 50.4626 42.5501 50.4746 42.562Z" fill="white"/>
<path d="M25.486 5.72425C24.9963 6.27371 25.1635 7.82654 25.7966 8.63878C26.0952 9.02102 26.3222 9.05685 26.131 8.68656C25.928 8.30433 25.9758 7.59959 26.2505 6.96651C26.573 6.26177 26.573 5.77203 26.2744 5.6048C25.928 5.42563 25.7249 5.46146 25.486 5.72425Z" fill="white"/>
<path d="M27.8272 36.7449C27.8272 36.8285 27.7197 36.9002 27.6003 36.9002C27.2419 36.9002 27.1942 37.0436 27.4808 37.3422C27.8511 37.7364 27.9347 38.9547 27.6242 39.5997C27.3136 40.2448 26.5969 40.9017 25.713 41.3317C24.9485 41.714 24.4707 41.7498 25.1874 41.3795C25.8205 41.0451 25.498 41.0451 24.4469 41.3676C23.2285 41.7498 22.9538 41.8932 23.5391 41.8812C23.7779 41.8812 24.1124 41.9648 24.2916 42.0843C24.7096 42.359 24.6141 42.4426 24.1363 42.2157C23.8377 42.0604 23.6704 42.0484 23.2882 42.1559C22.8104 42.2873 22.5118 42.5143 22.8343 42.5143C23.0493 42.5143 23.5152 43.016 23.5152 43.2668C23.5152 43.6132 23.3121 43.5893 23.2285 43.231C23.1449 42.801 22.7507 42.6098 22.3565 42.789C21.9862 42.9562 22.0101 43.0876 22.3804 43.016C22.7387 42.9562 23.0374 43.1712 23.0374 43.4818C23.0374 43.8163 23.4913 43.7685 23.6585 43.4101C23.766 43.1832 23.7541 43.0637 23.5868 42.8248C23.4793 42.6576 23.3957 42.4904 23.3957 42.4426C23.3957 42.3829 24.0049 42.4187 24.6499 42.5382C24.9008 42.574 24.9366 42.4068 24.7694 42.0126C24.7096 41.8693 24.7813 41.7976 25.0919 41.7379C26.9075 41.3317 28.0422 40.0298 28.0542 38.3217C28.0542 37.6647 27.8631 36.3388 27.8272 36.7449Z" fill="white"/>
<path d="M25.5817 44.7957C25.1397 44.9271 25.068 45.0824 25.4144 45.1779C25.725 45.2496 26.0953 45.8349 25.94 45.9902C25.8564 46.0738 25.7847 46.0141 25.7369 45.811C25.6414 45.4049 25.295 45.2257 24.9008 45.381C24.5425 45.5124 24.4827 45.6796 24.8172 45.584C25.1158 45.5124 25.4144 45.7035 25.5458 46.0499C25.6892 46.3963 25.7967 46.4082 26.0953 46.0857C26.3103 45.8468 26.3103 45.8229 26.1072 45.4765C25.8564 45.0346 25.9997 44.8674 26.5611 44.9629C26.8956 45.0107 26.9075 45.0107 26.6925 44.8435C26.4297 44.6404 26.1431 44.6285 25.5817 44.7957Z" fill="white"/>
<path d="M87.02 21.3161H88.023V22.6931L88.771 23.3901H90.352L91.066 22.6591V16.1311H90.046V15.1111H93.089V16.1311H92.069V22.8631C92.069 23.0105 92.0237 23.1295 91.933 23.2201L90.93 24.2571C90.828 24.3591 90.7033 24.4101 90.556 24.4101H88.55C88.4027 24.4101 88.2837 24.3648 88.193 24.2741L87.173 23.2881C87.071 23.1861 87.02 23.0671 87.02 22.9311V21.3161ZM98.2237 15.1111H101.25V16.1311H100.247V23.4071H101.25V24.4441H98.2237V23.4071H99.2267V16.1311H98.2237V15.1111ZM106.384 21.1121V24.4271H105.381V18.6811C105.381 18.5565 105.432 18.4431 105.534 18.3411L108.543 15.2641C108.628 15.1621 108.742 15.1111 108.883 15.1111C109.042 15.1111 109.172 15.1621 109.274 15.2641L112.317 18.3581C112.408 18.4488 112.453 18.5678 112.453 18.7151V24.4271H111.433V21.1121H106.384ZM106.401 20.1601H111.433V18.9191L108.9 16.3691L106.401 18.9021V20.1601ZM114.562 24.4101V15.1111H115.565L120.631 20.2961V15.1111H121.634V24.4101H120.631V21.8601L115.565 16.6241V24.4101H114.562ZM126.769 20.1601H130.815V21.1121H129.812V24.3931H126.293C126.145 24.3931 126.026 24.3478 125.936 24.2571L123.896 22.2341C123.794 22.1321 123.743 22.0131 123.743 21.8771V17.6611C123.743 17.4911 123.788 17.3608 123.879 17.2701L125.919 15.2471C125.987 15.1565 126.106 15.1111 126.276 15.1111H128.316C128.474 15.1111 128.599 15.1565 128.69 15.2471L129.965 16.5391L129.234 17.2531L128.112 16.1141H126.497L124.763 17.8651V21.6561L126.497 23.3731H128.809V21.1121H126.769V20.1601ZM136.425 20.4831L133.96 23.0841V24.3931H132.94V22.8801C132.94 22.7441 132.991 22.6251 133.093 22.5231L135.711 19.7691L133.093 16.9641C132.991 16.8621 132.94 16.7431 132.94 16.6071V15.0941H133.96V16.4031L136.442 19.0381L138.975 16.4201V15.1111H139.995V16.6241C139.995 16.7601 139.944 16.8791 139.842 16.9811L137.156 19.7521L139.842 22.5401C139.944 22.6421 139.995 22.7611 139.995 22.8971V24.4101H138.975V23.1011L136.425 20.4831ZM142.104 15.1111H143.09V22.6761L143.821 23.3901H147.459L148.156 22.6591V15.1111H149.176V22.8631C149.176 22.9991 149.131 23.1125 149.04 23.2031L148.054 24.2401C147.941 24.3535 147.816 24.4101 147.68 24.4101H143.6C143.464 24.4101 143.345 24.3591 143.243 24.2571L142.24 23.2541C142.149 23.1635 142.104 23.0445 142.104 22.8971V15.1111ZM151.285 15.0941H158.357V16.1311H152.288V19.2081H156.334V20.2451H152.288V23.4071H158.357V24.4271H151.285V15.0941ZM89.043 42.3901H91.321L93.072 40.6391V36.8991L91.321 35.1141H89.043V42.3901ZM88.023 35.1141H87.02V34.1111H91.542C91.678 34.1111 91.797 34.1621 91.899 34.2641L93.939 36.3381C94.041 36.4401 94.092 36.5591 94.092 36.6951V40.8431C94.092 40.9905 94.041 41.1151 93.939 41.2171L91.882 43.2571C91.7687 43.3705 91.6497 43.4271 91.525 43.4271H87.02V42.4071H88.023V35.1141ZM96.2007 34.0941H103.273V35.1311H97.2037V38.2081H101.25V39.2451H97.2037V42.4071H103.273V43.4271H96.2007V34.0941ZM111.399 35.7941L110.753 35.1141H107.183L106.452 35.8451V36.3891L112.198 40.4351C112.346 40.5315 112.419 40.6731 112.419 40.8601V41.8631C112.419 41.9821 112.374 42.0955 112.283 42.2031L111.314 43.2571C111.19 43.3818 111.065 43.4441 110.94 43.4441H106.928C106.792 43.4441 106.673 43.3931 106.571 43.2911L105.534 42.2541C105.432 42.1521 105.381 42.0331 105.381 41.8971V41.3701H106.401V41.6931L107.132 42.4071H110.719L111.399 41.6591V41.1321L105.653 37.0861C105.506 36.9898 105.432 36.8481 105.432 36.6611V35.6411C105.432 35.5051 105.483 35.3861 105.585 35.2841L106.622 34.2471C106.713 34.1565 106.832 34.1111 106.979 34.1111H110.957C111.105 34.1111 111.224 34.1565 111.314 34.2471L112.3 35.2331C112.402 35.3351 112.453 35.4541 112.453 35.5901V36.1341H111.399V35.7941ZM116.585 34.1111H119.611V35.1311H118.608V42.4071H119.611V43.4441H116.585V42.4071H117.588V35.1311H116.585V34.1111ZM126.769 39.1601H130.815V40.1121H129.812V43.3931H126.293C126.145 43.3931 126.026 43.3478 125.936 43.2571L123.896 41.2341C123.794 41.1321 123.743 41.0131 123.743 40.8771V36.6611C123.743 36.4911 123.788 36.3608 123.879 36.2701L125.919 34.2471C125.987 34.1565 126.106 34.1111 126.276 34.1111H128.316C128.474 34.1111 128.599 34.1565 128.69 34.2471L129.965 35.5391L129.234 36.2531L128.112 35.1141H126.497L124.763 36.8651V40.6561L126.497 42.3731H128.809V40.1121H126.769V39.1601ZM132.923 43.4101V34.1111H133.926L138.992 39.2961V34.1111H139.995V43.4101H138.992V40.8601L133.926 35.6241V43.4101H132.923ZM151.285 34.1111H158.357V35.1311H155.331V43.4271H154.311V35.1311H151.285V34.1111ZM160.465 34.0941H167.537V35.1311H161.468V38.2081H165.514V39.2451H161.468V42.4071H167.537V43.4271H160.465V34.0941ZM170.649 40.1121V43.4271H169.646V37.6811C169.646 37.5565 169.697 37.4431 169.799 37.3411L172.808 34.2641C172.893 34.1621 173.006 34.1111 173.148 34.1111C173.307 34.1111 173.437 34.1621 173.539 34.2641L176.582 37.3581C176.673 37.4488 176.718 37.5678 176.718 37.7151V43.4271H175.698V40.1121H170.649ZM170.666 39.1601H175.698V37.9191L173.165 35.3691L170.666 37.9021V39.1601ZM182.873 37.9701V39.2621H181.836V37.9701L179.847 35.8621V43.4101H178.827V34.6381C178.827 34.4115 178.934 34.2528 179.15 34.1621C179.218 34.1281 179.28 34.1111 179.337 34.1111C179.461 34.1111 179.58 34.1678 179.694 34.2811L182.329 37.0181L185.032 34.2471C185.122 34.1565 185.241 34.1111 185.389 34.1111C185.4 34.1111 185.42 34.1083 185.448 34.1026C185.476 34.097 185.499 34.0941 185.516 34.0941C185.522 34.0941 185.542 34.0998 185.576 34.1111C185.791 34.2018 185.899 34.3661 185.899 34.6041V43.4101H184.879V35.8281L182.873 37.9701Z" fill="white"/>
</svg>